<?xml version="1.0" encoding="UTF-8" standalone="no"?>
<!DOCTYPE svg PUBLIC "-//W3C//DTD SVG 1.1//EN"
 "http://www.w3.org/Graphics/SVG/1.1/DTD/svg11.dtd">
<!-- Generated by graphviz version 2.47.0 (20210316.0004)
 -->
<!-- Title: dependencies Pages: 1 -->
<svg width="504pt" height="211pt"
 viewBox="0.00 0.00 504.00 211.00" xmlns="http://www.w3.org/2000/svg" xmlns:xlink="http://www.w3.org/1999/xlink">
<g id="graph0" class="graph" transform="scale(1 1) rotate(0) translate(4 207)">
<title>dependencies</title>
<polygon fill="white" stroke="transparent" points="-4,4 -4,-207 500,-207 500,4 -4,4"/>
<text text-anchor="start" x="227.01" y="-42.4" font-family="Times-12" font-weight="bold" font-size="14.00">Legend</text>
<polygon fill="#ffffb3" stroke="transparent" points="14,-10 14,-30 34,-30 34,-10 14,-10"/>
<text text-anchor="start" x="37.63" y="-15.4" font-family="Times-12" font-size="14.00"> &#160;Declarations</text>
<polygon fill="#8dd3c7" stroke="transparent" points="127,-10 127,-30 147,-30 147,-10 127,-10"/>
<text text-anchor="start" x="150.73" y="-15.4" font-family="Times-12" font-size="14.00"> &#160;Module</text>
<polygon fill="#80b1d3" stroke="transparent" points="213,-10 213,-30 233,-30 233,-10 213,-10"/>
<text text-anchor="start" x="236.78" y="-15.4" font-family="Times-12" font-size="14.00"> &#160;Bootstrap</text>
<polygon fill="#fdb462" stroke="transparent" points="310,-10 310,-30 330,-30 330,-10 310,-10"/>
<text text-anchor="start" x="333.67" y="-15.4" font-family="Times-12" font-size="14.00"> &#160;Providers</text>
<polygon fill="#fb8072" stroke="transparent" points="406,-10 406,-30 426,-30 426,-10 406,-10"/>
<text text-anchor="start" x="429.73" y="-15.4" font-family="Times-12" font-size="14.00"> &#160;Exports</text>
<g id="clust1" class="cluster">
<title>cluster_AccountModule</title>
<polygon fill="none" stroke="black" stroke-dasharray="1,5" points="19,-70 19,-195 477,-195 477,-70 19,-70"/>
</g>
<g id="clust2" class="cluster">
<title>cluster_AccountModule_declarations</title>
<polygon fill="none" stroke="black" points="333,-78 333,-130 469,-130 469,-78 333,-78"/>
</g>
<g id="clust4" class="cluster">
<title>cluster_AccountModule_imports</title>
<polygon fill="none" stroke="black" points="27,-78 27,-130 325,-130 325,-78 27,-78"/>
</g>
<!-- ProfileComponent -->
<g id="node1" class="node">
<title>ProfileComponent</title>
<polygon fill="#ffffb3" stroke="black" points="460.93,-122 341.07,-122 341.07,-86 460.93,-86 460.93,-122"/>
<text text-anchor="middle" x="401" y="-99.8" font-family="Times,serif" font-size="14.00">ProfileComponent</text>
</g>
<!-- AccountModule -->
<g id="node2" class="node">
<title>AccountModule</title>
<polygon fill="#8dd3c7" stroke="black" points="314.48,-187 311.48,-191 290.48,-191 287.48,-187 207.52,-187 207.52,-151 314.48,-151 314.48,-187"/>
<text text-anchor="middle" x="261" y="-164.8" font-family="Times,serif" font-size="14.00">AccountModule</text>
</g>
<!-- ProfileComponent&#45;&gt;AccountModule -->
<g id="edge1" class="edge">
<title>ProfileComponent&#45;&gt;AccountModule</title>
<path fill="none" stroke="black" d="M401,-122.11C401,-141.34 401,-169 401,-169 401,-169 324.73,-169 324.73,-169"/>
<polygon fill="black" stroke="black" points="324.73,-165.5 314.73,-169 324.73,-172.5 324.73,-165.5"/>
</g>
<!-- CommonModule -->
<g id="node3" class="node">
<title>CommonModule</title>
<polygon fill="#8dd3c7" stroke="black" points="316.67,-122 313.67,-126 292.67,-126 289.67,-122 205.33,-122 205.33,-86 316.67,-86 316.67,-122"/>
<text text-anchor="middle" x="261" y="-99.8" font-family="Times,serif" font-size="14.00">CommonModule</text>
</g>
<!-- CommonModule&#45;&gt;AccountModule -->
<g id="edge2" class="edge">
<title>CommonModule&#45;&gt;AccountModule</title>
<path fill="none" stroke="black" d="M261,-122.11C261,-122.11 261,-140.99 261,-140.99"/>
<polygon fill="black" stroke="black" points="257.5,-140.99 261,-150.99 264.5,-140.99 257.5,-140.99"/>
</g>
<!-- AccountRoutingModule -->
<g id="node4" class="node">
<title>AccountRoutingModule</title>
<polygon fill="#8dd3c7" stroke="black" points="187.09,-122 184.09,-126 163.09,-126 160.09,-122 34.91,-122 34.91,-86 187.09,-86 187.09,-122"/>
<text text-anchor="middle" x="111" y="-99.8" font-family="Times,serif" font-size="14.00">AccountRoutingModule</text>
</g>
<!-- AccountRoutingModule&#45;&gt;AccountModule -->
<g id="edge3" class="edge">
<title>AccountRoutingModule&#45;&gt;AccountModule</title>
<path fill="none" stroke="black" d="M111,-122.11C111,-141.34 111,-169 111,-169 111,-169 197.27,-169 197.27,-169"/>
<polygon fill="black" stroke="black" points="197.27,-172.5 207.27,-169 197.27,-165.5 197.27,-172.5"/>
</g>
</g>
</svg>
