<?xml version="1.0" encoding="UTF-8" standalone="no"?>
<!DOCTYPE svg PUBLIC "-//W3C//DTD SVG 1.1//EN"
 "http://www.w3.org/Graphics/SVG/1.1/DTD/svg11.dtd">
<!-- Generated by graphviz version 2.47.0 (20210316.0004)
 -->
<!-- Title: dependencies Pages: 1 -->
<svg width="713pt" height="211pt"
 viewBox="0.00 0.00 713.00 211.00" xmlns="http://www.w3.org/2000/svg" xmlns:xlink="http://www.w3.org/1999/xlink">
<g id="graph0" class="graph" transform="scale(1 1) rotate(0) translate(4 207)">
<title>dependencies</title>
<polygon fill="white" stroke="transparent" points="-4,4 -4,-207 709,-207 709,4 -4,4"/>
<text text-anchor="start" x="331.51" y="-42.4" font-family="Times-12" font-weight="bold" font-size="14.00">Legend</text>
<polygon fill="#ffffb3" stroke="transparent" points="118.5,-10 118.5,-30 138.5,-30 138.5,-10 118.5,-10"/>
<text text-anchor="start" x="142.13" y="-15.4" font-family="Times-12" font-size="14.00"> &#160;Declarations</text>
<polygon fill="#8dd3c7" stroke="transparent" points="231.5,-10 231.5,-30 251.5,-30 251.5,-10 231.5,-10"/>
<text text-anchor="start" x="255.23" y="-15.4" font-family="Times-12" font-size="14.00"> &#160;Module</text>
<polygon fill="#80b1d3" stroke="transparent" points="317.5,-10 317.5,-30 337.5,-30 337.5,-10 317.5,-10"/>
<text text-anchor="start" x="341.28" y="-15.4" font-family="Times-12" font-size="14.00"> &#160;Bootstrap</text>
<polygon fill="#fdb462" stroke="transparent" points="414.5,-10 414.5,-30 434.5,-30 434.5,-10 414.5,-10"/>
<text text-anchor="start" x="438.17" y="-15.4" font-family="Times-12" font-size="14.00"> &#160;Providers</text>
<polygon fill="#fb8072" stroke="transparent" points="510.5,-10 510.5,-30 530.5,-30 530.5,-10 510.5,-10"/>
<text text-anchor="start" x="534.23" y="-15.4" font-family="Times-12" font-size="14.00"> &#160;Exports</text>
<g id="clust1" class="cluster">
<title>cluster_AuthModule</title>
<polygon fill="none" stroke="black" stroke-dasharray="1,5" points="8,-70 8,-195 697,-195 697,-70 8,-70"/>
</g>
<g id="clust5" class="cluster">
<title>cluster_AuthModule_imports</title>
<polygon fill="none" stroke="black" points="297,-78 297,-130 689,-130 689,-78 297,-78"/>
</g>
<g id="clust2" class="cluster">
<title>cluster_AuthModule_declarations</title>
<polygon fill="none" stroke="black" points="16,-78 16,-130 289,-130 289,-78 16,-78"/>
</g>
<!-- SingupComponent -->
<g id="node1" class="node">
<title>SingupComponent</title>
<polygon fill="#ffffb3" stroke="black" points="280.51,-122 159.49,-122 159.49,-86 280.51,-86 280.51,-122"/>
<text text-anchor="middle" x="220" y="-99.8" font-family="Times,serif" font-size="14.00">SingupComponent</text>
</g>
<!-- AuthModule -->
<g id="node3" class="node">
<title>AuthModule</title>
<polygon fill="#8dd3c7" stroke="black" points="396.55,-187 393.55,-191 372.55,-191 369.55,-187 309.45,-187 309.45,-151 396.55,-151 396.55,-187"/>
<text text-anchor="middle" x="353" y="-164.8" font-family="Times,serif" font-size="14.00">AuthModule</text>
</g>
<!-- SingupComponent&#45;&gt;AuthModule -->
<g id="edge1" class="edge">
<title>SingupComponent&#45;&gt;AuthModule</title>
<path fill="none" stroke="black" d="M220,-122.02C220,-139.37 220,-163 220,-163 220,-163 299.45,-163 299.45,-163"/>
<polygon fill="black" stroke="black" points="299.45,-166.5 309.45,-163 299.45,-159.5 299.45,-166.5"/>
</g>
<!-- SigninComponent -->
<g id="node2" class="node">
<title>SigninComponent</title>
<polygon fill="#ffffb3" stroke="black" points="141.9,-122 24.1,-122 24.1,-86 141.9,-86 141.9,-122"/>
<text text-anchor="middle" x="83" y="-99.8" font-family="Times,serif" font-size="14.00">SigninComponent</text>
</g>
<!-- SigninComponent&#45;&gt;AuthModule -->
<g id="edge2" class="edge">
<title>SigninComponent&#45;&gt;AuthModule</title>
<path fill="none" stroke="black" d="M83,-122.28C83,-143.32 83,-175 83,-175 83,-175 299.32,-175 299.32,-175"/>
<polygon fill="black" stroke="black" points="299.32,-178.5 309.32,-175 299.32,-171.5 299.32,-178.5"/>
</g>
<!-- CommonModule -->
<g id="node4" class="node">
<title>CommonModule</title>
<polygon fill="#8dd3c7" stroke="black" points="680.67,-122 677.67,-126 656.67,-126 653.67,-122 569.33,-122 569.33,-86 680.67,-86 680.67,-122"/>
<text text-anchor="middle" x="625" y="-99.8" font-family="Times,serif" font-size="14.00">CommonModule</text>
</g>
<!-- CommonModule&#45;&gt;AuthModule -->
<g id="edge3" class="edge">
<title>CommonModule&#45;&gt;AuthModule</title>
<path fill="none" stroke="black" d="M625,-122.28C625,-143.32 625,-175 625,-175 625,-175 406.7,-175 406.7,-175"/>
<polygon fill="black" stroke="black" points="406.7,-171.5 396.7,-175 406.7,-178.5 406.7,-171.5"/>
</g>
<!-- AuthRoutingModule -->
<g id="node5" class="node">
<title>AuthRoutingModule</title>
<polygon fill="#8dd3c7" stroke="black" points="551.17,-122 548.17,-126 527.17,-126 524.17,-122 418.83,-122 418.83,-86 551.17,-86 551.17,-122"/>
<text text-anchor="middle" x="485" y="-99.8" font-family="Times,serif" font-size="14.00">AuthRoutingModule</text>
</g>
<!-- AuthRoutingModule&#45;&gt;AuthModule -->
<g id="edge4" class="edge">
<title>AuthRoutingModule&#45;&gt;AuthModule</title>
<path fill="none" stroke="black" d="M485,-122.02C485,-139.37 485,-163 485,-163 485,-163 406.59,-163 406.59,-163"/>
<polygon fill="black" stroke="black" points="406.59,-159.5 396.59,-163 406.59,-166.5 406.59,-159.5"/>
</g>
<!-- FormsModule -->
<g id="node6" class="node">
<title>FormsModule</title>
<polygon fill="#8dd3c7" stroke="black" points="400.83,-122 397.83,-126 376.83,-126 373.83,-122 305.17,-122 305.17,-86 400.83,-86 400.83,-122"/>
<text text-anchor="middle" x="353" y="-99.8" font-family="Times,serif" font-size="14.00">FormsModule</text>
</g>
<!-- FormsModule&#45;&gt;AuthModule -->
<g id="edge5" class="edge">
<title>FormsModule&#45;&gt;AuthModule</title>
<path fill="none" stroke="black" d="M353,-122.11C353,-122.11 353,-140.99 353,-140.99"/>
<polygon fill="black" stroke="black" points="349.5,-140.99 353,-150.99 356.5,-140.99 349.5,-140.99"/>
</g>
</g>
</svg>
