<?xml version="1.0" encoding="UTF-8" standalone="no"?>
<!DOCTYPE svg PUBLIC "-//W3C//DTD SVG 1.1//EN"
 "http://www.w3.org/Graphics/SVG/1.1/DTD/svg11.dtd">
<!-- Generated by graphviz version 2.47.0 (20210316.0004)
 -->
<!-- Title: dependencies Pages: 1 -->
<svg width="2470pt" height="284pt"
 viewBox="0.00 0.00 2470.00 284.00" xmlns="http://www.w3.org/2000/svg" xmlns:xlink="http://www.w3.org/1999/xlink">
<g id="graph0" class="graph" transform="scale(1 1) rotate(0) translate(4 280)">
<title>dependencies</title>
<polygon fill="white" stroke="transparent" points="-4,4 -4,-280 2466,-280 2466,4 -4,4"/>
<text text-anchor="start" x="1210.01" y="-42.4" font-family="Times-12" font-weight="bold" font-size="14.00">Legend</text>
<polygon fill="#ffffb3" stroke="transparent" points="997,-10 997,-30 1017,-30 1017,-10 997,-10"/>
<text text-anchor="start" x="1020.63" y="-15.4" font-family="Times-12" font-size="14.00"> &#160;Declarations</text>
<polygon fill="#8dd3c7" stroke="transparent" points="1110,-10 1110,-30 1130,-30 1130,-10 1110,-10"/>
<text text-anchor="start" x="1133.73" y="-15.4" font-family="Times-12" font-size="14.00"> &#160;Module</text>
<polygon fill="#80b1d3" stroke="transparent" points="1196,-10 1196,-30 1216,-30 1216,-10 1196,-10"/>
<text text-anchor="start" x="1219.78" y="-15.4" font-family="Times-12" font-size="14.00"> &#160;Bootstrap</text>
<polygon fill="#fdb462" stroke="transparent" points="1293,-10 1293,-30 1313,-30 1313,-10 1293,-10"/>
<text text-anchor="start" x="1316.67" y="-15.4" font-family="Times-12" font-size="14.00"> &#160;Providers</text>
<polygon fill="#fb8072" stroke="transparent" points="1389,-10 1389,-30 1409,-30 1409,-10 1389,-10"/>
<text text-anchor="start" x="1412.73" y="-15.4" font-family="Times-12" font-size="14.00"> &#160;Exports</text>
<g id="clust1" class="cluster">
<title>cluster_CoreModule</title>
<polygon fill="none" stroke="black" stroke-dasharray="1,5" points="8,-70 8,-268 2454,-268 2454,-70 8,-70"/>
</g>
<g id="clust7" class="cluster">
<title>cluster_CoreModule_imports</title>
<polygon fill="none" stroke="black" points="2066,-78 2066,-130 2446,-130 2446,-78 2066,-78"/>
</g>
<g id="clust2" class="cluster">
<title>cluster_CoreModule_declarations</title>
<polygon fill="none" stroke="black" points="1502,-78 1502,-130 2058,-130 2058,-78 1502,-78"/>
</g>
<g id="clust8" class="cluster">
<title>cluster_CoreModule_exports</title>
<polygon fill="none" stroke="black" points="1494,-208 1494,-260 2065,-260 2065,-208 1494,-208"/>
</g>
<g id="clust10" class="cluster">
<title>cluster_CoreModule_providers</title>
<polygon fill="none" stroke="black" points="16,-78 16,-130 1494,-130 1494,-78 16,-78"/>
</g>
<!-- FooterComponent -->
<g id="node1" class="node">
<title>FooterComponent</title>
<polygon fill="#ffffb3" stroke="black" points="2049.88,-122 1932.12,-122 1932.12,-86 2049.88,-86 2049.88,-122"/>
<text text-anchor="middle" x="1991" y="-99.8" font-family="Times,serif" font-size="14.00">FooterComponent</text>
</g>
<!-- CoreModule -->
<g id="node5" class="node">
<title>CoreModule</title>
<polygon fill="#8dd3c7" stroke="black" points="1826.26,-187 1823.26,-191 1802.26,-191 1799.26,-187 1739.74,-187 1739.74,-151 1826.26,-151 1826.26,-187"/>
<text text-anchor="middle" x="1783" y="-164.8" font-family="Times,serif" font-size="14.00">CoreModule</text>
</g>
<!-- FooterComponent&#45;&gt;CoreModule -->
<g id="edge1" class="edge">
<title>FooterComponent&#45;&gt;CoreModule</title>
<path fill="none" stroke="black" d="M2011.73,-122.24C2011.73,-137.57 2011.73,-157 2011.73,-157 2011.73,-157 1836.29,-157 1836.29,-157"/>
<polygon fill="black" stroke="black" points="1836.29,-153.5 1826.29,-157 1836.29,-160.5 1836.29,-153.5"/>
</g>
<!-- HeaderComponent -->
<g id="node2" class="node">
<title>HeaderComponent</title>
<polygon fill="#ffffb3" stroke="black" points="1913.74,-122 1792.26,-122 1792.26,-86 1913.74,-86 1913.74,-122"/>
<text text-anchor="middle" x="1853" y="-99.8" font-family="Times,serif" font-size="14.00">HeaderComponent</text>
</g>
<!-- HeaderComponent&#45;&gt;CoreModule -->
<g id="edge2" class="edge">
<title>HeaderComponent&#45;&gt;CoreModule</title>
<path fill="none" stroke="black" d="M1809.25,-122.11C1809.25,-122.11 1809.25,-140.99 1809.25,-140.99"/>
<polygon fill="black" stroke="black" points="1805.75,-140.99 1809.25,-150.99 1812.75,-140.99 1805.75,-140.99"/>
</g>
<!-- NavbarComponent -->
<g id="node3" class="node">
<title>NavbarComponent</title>
<polygon fill="#ffffb3" stroke="black" points="1774.03,-122 1651.97,-122 1651.97,-86 1774.03,-86 1774.03,-122"/>
<text text-anchor="middle" x="1713" y="-99.8" font-family="Times,serif" font-size="14.00">NavbarComponent</text>
</g>
<!-- NavbarComponent&#45;&gt;CoreModule -->
<g id="edge3" class="edge">
<title>NavbarComponent&#45;&gt;CoreModule</title>
<path fill="none" stroke="black" d="M1756.94,-122.11C1756.94,-122.11 1756.94,-140.99 1756.94,-140.99"/>
<polygon fill="black" stroke="black" points="1753.44,-140.99 1756.94,-150.99 1760.44,-140.99 1753.44,-140.99"/>
</g>
<!-- SidebarComponent -->
<g id="node4" class="node">
<title>SidebarComponent</title>
<polygon fill="#ffffb3" stroke="black" points="1634.1,-122 1509.9,-122 1509.9,-86 1634.1,-86 1634.1,-122"/>
<text text-anchor="middle" x="1572" y="-99.8" font-family="Times,serif" font-size="14.00">SidebarComponent</text>
</g>
<!-- SidebarComponent&#45;&gt;CoreModule -->
<g id="edge4" class="edge">
<title>SidebarComponent&#45;&gt;CoreModule</title>
<path fill="none" stroke="black" d="M1589.85,-122.24C1589.85,-137.57 1589.85,-157 1589.85,-157 1589.85,-157 1729.65,-157 1729.65,-157"/>
<polygon fill="black" stroke="black" points="1729.65,-160.5 1739.65,-157 1729.65,-153.5 1729.65,-160.5"/>
</g>
<!-- FooterComponent  -->
<g id="node9" class="node">
<title>FooterComponent </title>
<polygon fill="#fb8072" stroke="black" points="2056.88,-252 1935.12,-252 1935.12,-216 2056.88,-216 2056.88,-252"/>
<text text-anchor="middle" x="1996" y="-229.8" font-family="Times,serif" font-size="14.00">FooterComponent </text>
</g>
<!-- CoreModule&#45;&gt;FooterComponent  -->
<g id="edge8" class="edge">
<title>CoreModule&#45;&gt;FooterComponent </title>
<path fill="none" stroke="black" stroke-dasharray="5,2" d="M1826.71,-181C1882.96,-181 1973.52,-181 1973.52,-181 1973.52,-181 1973.52,-205.76 1973.52,-205.76"/>
<polygon fill="black" stroke="black" points="1970.02,-205.76 1973.52,-215.76 1977.02,-205.76 1970.02,-205.76"/>
</g>
<!-- HeaderComponent  -->
<g id="node10" class="node">
<title>HeaderComponent </title>
<polygon fill="#fb8072" stroke="black" points="1917.74,-252 1792.26,-252 1792.26,-216 1917.74,-216 1917.74,-252"/>
<text text-anchor="middle" x="1855" y="-229.8" font-family="Times,serif" font-size="14.00">HeaderComponent </text>
</g>
<!-- CoreModule&#45;&gt;HeaderComponent  -->
<g id="edge9" class="edge">
<title>CoreModule&#45;&gt;HeaderComponent </title>
<path fill="none" stroke="black" stroke-dasharray="5,2" d="M1809.38,-187.11C1809.38,-187.11 1809.38,-205.99 1809.38,-205.99"/>
<polygon fill="black" stroke="black" points="1805.88,-205.99 1809.38,-215.99 1812.88,-205.99 1805.88,-205.99"/>
</g>
<!-- NavbarComponent  -->
<g id="node11" class="node">
<title>NavbarComponent </title>
<polygon fill="#fb8072" stroke="black" points="1774.03,-252 1647.97,-252 1647.97,-216 1774.03,-216 1774.03,-252"/>
<text text-anchor="middle" x="1711" y="-229.8" font-family="Times,serif" font-size="14.00">NavbarComponent </text>
</g>
<!-- CoreModule&#45;&gt;NavbarComponent  -->
<g id="edge10" class="edge">
<title>CoreModule&#45;&gt;NavbarComponent </title>
<path fill="none" stroke="black" stroke-dasharray="5,2" d="M1756.82,-187.11C1756.82,-187.11 1756.82,-205.99 1756.82,-205.99"/>
<polygon fill="black" stroke="black" points="1753.32,-205.99 1756.82,-215.99 1760.32,-205.99 1753.32,-205.99"/>
</g>
<!-- SidebarComponent  -->
<g id="node12" class="node">
<title>SidebarComponent </title>
<polygon fill="#fb8072" stroke="black" points="1629.6,-252 1502.4,-252 1502.4,-216 1629.6,-216 1629.6,-252"/>
<text text-anchor="middle" x="1566" y="-229.8" font-family="Times,serif" font-size="14.00">SidebarComponent </text>
</g>
<!-- CoreModule&#45;&gt;SidebarComponent  -->
<g id="edge11" class="edge">
<title>CoreModule&#45;&gt;SidebarComponent </title>
<path fill="none" stroke="black" stroke-dasharray="5,2" d="M1739.7,-181C1672.29,-181 1549.9,-181 1549.9,-181 1549.9,-181 1549.9,-205.76 1549.9,-205.76"/>
<polygon fill="black" stroke="black" points="1546.4,-205.76 1549.9,-215.76 1553.4,-205.76 1546.4,-205.76"/>
</g>
<!-- CommonModule -->
<g id="node6" class="node">
<title>CommonModule</title>
<polygon fill="#8dd3c7" stroke="black" points="2437.67,-122 2434.67,-126 2413.67,-126 2410.67,-122 2326.33,-122 2326.33,-86 2437.67,-86 2437.67,-122"/>
<text text-anchor="middle" x="2382" y="-99.8" font-family="Times,serif" font-size="14.00">CommonModule</text>
</g>
<!-- CommonModule&#45;&gt;CoreModule -->
<g id="edge5" class="edge">
<title>CommonModule&#45;&gt;CoreModule</title>
<path fill="none" stroke="black" d="M2382,-122.28C2382,-143.32 2382,-175 2382,-175 2382,-175 1836.56,-175 1836.56,-175"/>
<polygon fill="black" stroke="black" points="1836.56,-171.5 1826.56,-175 1836.56,-178.5 1836.56,-171.5"/>
</g>
<!-- HttpClientModule -->
<g id="node7" class="node">
<title>HttpClientModule</title>
<polygon fill="#8dd3c7" stroke="black" points="2308.16,-122 2305.16,-126 2284.16,-126 2281.16,-122 2189.84,-122 2189.84,-86 2308.16,-86 2308.16,-122"/>
<text text-anchor="middle" x="2249" y="-99.8" font-family="Times,serif" font-size="14.00">HttpClientModule</text>
</g>
<!-- HttpClientModule&#45;&gt;CoreModule -->
<g id="edge6" class="edge">
<title>HttpClientModule&#45;&gt;CoreModule</title>
<path fill="none" stroke="black" d="M2249,-122.11C2249,-141.34 2249,-169 2249,-169 2249,-169 1836.42,-169 1836.42,-169"/>
<polygon fill="black" stroke="black" points="1836.42,-165.5 1826.42,-169 1836.42,-172.5 1836.42,-165.5"/>
</g>
<!-- RouterModule -->
<g id="node8" class="node">
<title>RouterModule</title>
<polygon fill="#8dd3c7" stroke="black" points="2171.65,-122 2168.65,-126 2147.65,-126 2144.65,-122 2074.35,-122 2074.35,-86 2171.65,-86 2171.65,-122"/>
<text text-anchor="middle" x="2123" y="-99.8" font-family="Times,serif" font-size="14.00">RouterModule</text>
</g>
<!-- RouterModule&#45;&gt;CoreModule -->
<g id="edge7" class="edge">
<title>RouterModule&#45;&gt;CoreModule</title>
<path fill="none" stroke="black" d="M2123,-122.02C2123,-139.37 2123,-163 2123,-163 2123,-163 1836.41,-163 1836.41,-163"/>
<polygon fill="black" stroke="black" points="1836.41,-159.5 1826.41,-163 1836.41,-166.5 1836.41,-159.5"/>
</g>
<!-- CookieService -->
<g id="node13" class="node">
<title>CookieService</title>
<ellipse fill="#fdb462" stroke="black" cx="1418" cy="-104" rx="67.78" ry="18"/>
<text text-anchor="middle" x="1418" y="-99.8" font-family="Times,serif" font-size="14.00">CookieService</text>
</g>
<!-- CookieService&#45;&gt;CoreModule -->
<g id="edge12" class="edge">
<title>CookieService&#45;&gt;CoreModule</title>
<path fill="none" stroke="black" d="M1418,-122.02C1418,-139.37 1418,-163 1418,-163 1418,-163 1729.7,-163 1729.7,-163"/>
<polygon fill="black" stroke="black" points="1729.7,-166.5 1739.7,-163 1729.7,-159.5 1729.7,-166.5"/>
</g>
<!-- { provide: HTTP_INTERCEPTORS, useClass: HttpTokenInterceptor, multi: &#160;} -->
<g id="node14" class="node">
<title>{ provide: HTTP_INTERCEPTORS, useClass: HttpTokenInterceptor, multi: &#160;}</title>
<ellipse fill="#fdb462" stroke="black" cx="1014" cy="-104" rx="317.99" ry="18"/>
<text text-anchor="middle" x="1014" y="-99.8" font-family="Times,serif" font-size="14.00">{ provide: HTTP_INTERCEPTORS, useClass: HttpTokenInterceptor, multi: &#160;}</text>
</g>
<!-- { provide: HTTP_INTERCEPTORS, useClass: HttpTokenInterceptor, multi: &#160;}&#45;&gt;CoreModule -->
<g id="edge13" class="edge">
<title>{ provide: HTTP_INTERCEPTORS, useClass: HttpTokenInterceptor, multi: &#160;}&#45;&gt;CoreModule</title>
<path fill="none" stroke="black" d="M1014,-122.11C1014,-141.34 1014,-169 1014,-169 1014,-169 1729.73,-169 1729.73,-169"/>
<polygon fill="black" stroke="black" points="1729.73,-172.5 1739.73,-169 1729.73,-165.5 1729.73,-172.5"/>
</g>
<!-- { provide: HTTP_INTERCEPTORS, useClass: ErrorHandlerInterceptor, multi: &#160;} -->
<g id="node15" class="node">
<title>{ provide: HTTP_INTERCEPTORS, useClass: ErrorHandlerInterceptor, multi: &#160;}</title>
<ellipse fill="#fdb462" stroke="black" cx="351" cy="-104" rx="327.25" ry="18"/>
<text text-anchor="middle" x="351" y="-99.8" font-family="Times,serif" font-size="14.00">{ provide: HTTP_INTERCEPTORS, useClass: ErrorHandlerInterceptor, multi: &#160;}</text>
</g>
<!-- { provide: HTTP_INTERCEPTORS, useClass: ErrorHandlerInterceptor, multi: &#160;}&#45;&gt;CoreModule -->
<g id="edge14" class="edge">
<title>{ provide: HTTP_INTERCEPTORS, useClass: ErrorHandlerInterceptor, multi: &#160;}&#45;&gt;CoreModule</title>
<path fill="none" stroke="black" d="M351,-122.28C351,-143.32 351,-175 351,-175 351,-175 1729.36,-175 1729.36,-175"/>
<polygon fill="black" stroke="black" points="1729.36,-178.5 1739.36,-175 1729.36,-171.5 1729.36,-178.5"/>
</g>
</g>
</svg>
