<?xml version="1.0" encoding="UTF-8" standalone="no"?>
<!DOCTYPE svg PUBLIC "-//W3C//DTD SVG 1.1//EN"
 "http://www.w3.org/Graphics/SVG/1.1/DTD/svg11.dtd">
<!-- Generated by graphviz version 2.47.0 (20210316.0004)
 -->
<!-- Title: dependencies Pages: 1 -->
<svg width="850pt" height="211pt"
 viewBox="0.00 0.00 850.00 211.00" xmlns="http://www.w3.org/2000/svg" xmlns:xlink="http://www.w3.org/1999/xlink">
<g id="graph0" class="graph" transform="scale(1 1) rotate(0) translate(4 207)">
<title>dependencies</title>
<polygon fill="white" stroke="transparent" points="-4,4 -4,-207 846,-207 846,4 -4,4"/>
<text text-anchor="start" x="400.01" y="-42.4" font-family="Times-12" font-weight="bold" font-size="14.00">Legend</text>
<polygon fill="#ffffb3" stroke="transparent" points="187,-10 187,-30 207,-30 207,-10 187,-10"/>
<text text-anchor="start" x="210.63" y="-15.4" font-family="Times-12" font-size="14.00"> &#160;Declarations</text>
<polygon fill="#8dd3c7" stroke="transparent" points="300,-10 300,-30 320,-30 320,-10 300,-10"/>
<text text-anchor="start" x="323.73" y="-15.4" font-family="Times-12" font-size="14.00"> &#160;Module</text>
<polygon fill="#80b1d3" stroke="transparent" points="386,-10 386,-30 406,-30 406,-10 386,-10"/>
<text text-anchor="start" x="409.78" y="-15.4" font-family="Times-12" font-size="14.00"> &#160;Bootstrap</text>
<polygon fill="#fdb462" stroke="transparent" points="483,-10 483,-30 503,-30 503,-10 483,-10"/>
<text text-anchor="start" x="506.67" y="-15.4" font-family="Times-12" font-size="14.00"> &#160;Providers</text>
<polygon fill="#fb8072" stroke="transparent" points="579,-10 579,-30 599,-30 599,-10 579,-10"/>
<text text-anchor="start" x="602.73" y="-15.4" font-family="Times-12" font-size="14.00"> &#160;Exports</text>
<g id="clust1" class="cluster">
<title>cluster_ApplicantModule</title>
<polygon fill="none" stroke="black" stroke-dasharray="1,5" points="8,-70 8,-195 834,-195 834,-70 8,-70"/>
</g>
<g id="clust2" class="cluster">
<title>cluster_ApplicantModule_declarations</title>
<polygon fill="none" stroke="black" points="444,-78 444,-130 826,-130 826,-78 444,-78"/>
</g>
<g id="clust6" class="cluster">
<title>cluster_ApplicantModule_imports</title>
<polygon fill="none" stroke="black" points="16,-78 16,-130 436,-130 436,-78 16,-78"/>
</g>
<!-- ListComponent -->
<g id="node1" class="node">
<title>ListComponent</title>
<polygon fill="#ffffb3" stroke="black" points="817.61,-122 714.39,-122 714.39,-86 817.61,-86 817.61,-122"/>
<text text-anchor="middle" x="766" y="-99.8" font-family="Times,serif" font-size="14.00">ListComponent</text>
</g>
<!-- ApplicantModule -->
<g id="node4" class="node">
<title>ApplicantModule</title>
<polygon fill="#8dd3c7" stroke="black" points="495.26,-187 492.26,-191 471.26,-191 468.26,-187 380.74,-187 380.74,-151 495.26,-151 495.26,-187"/>
<text text-anchor="middle" x="438" y="-164.8" font-family="Times,serif" font-size="14.00">ApplicantModule</text>
</g>
<!-- ListComponent&#45;&gt;ApplicantModule -->
<g id="edge1" class="edge">
<title>ListComponent&#45;&gt;ApplicantModule</title>
<path fill="none" stroke="black" d="M766,-122.28C766,-143.32 766,-175 766,-175 766,-175 505.51,-175 505.51,-175"/>
<polygon fill="black" stroke="black" points="505.51,-171.5 495.51,-175 505.51,-178.5 505.51,-171.5"/>
</g>
<!-- DetailsComponent -->
<g id="node2" class="node">
<title>DetailsComponent</title>
<polygon fill="#ffffb3" stroke="black" points="696.48,-122 575.52,-122 575.52,-86 696.48,-86 696.48,-122"/>
<text text-anchor="middle" x="636" y="-99.8" font-family="Times,serif" font-size="14.00">DetailsComponent</text>
</g>
<!-- DetailsComponent&#45;&gt;ApplicantModule -->
<g id="edge2" class="edge">
<title>DetailsComponent&#45;&gt;ApplicantModule</title>
<path fill="none" stroke="black" d="M636,-122.02C636,-139.37 636,-163 636,-163 636,-163 505.27,-163 505.27,-163"/>
<polygon fill="black" stroke="black" points="505.27,-159.5 495.27,-163 505.27,-166.5 505.27,-159.5"/>
</g>
<!-- AddComponent -->
<g id="node3" class="node">
<title>AddComponent</title>
<polygon fill="#ffffb3" stroke="black" points="557.94,-122 452.06,-122 452.06,-86 557.94,-86 557.94,-122"/>
<text text-anchor="middle" x="505" y="-99.8" font-family="Times,serif" font-size="14.00">AddComponent</text>
</g>
<!-- AddComponent&#45;&gt;ApplicantModule -->
<g id="edge3" class="edge">
<title>AddComponent&#45;&gt;ApplicantModule</title>
<path fill="none" stroke="black" d="M473.83,-122.11C473.83,-122.11 473.83,-140.99 473.83,-140.99"/>
<polygon fill="black" stroke="black" points="470.33,-140.99 473.83,-150.99 477.33,-140.99 470.33,-140.99"/>
</g>
<!-- CommonModule -->
<g id="node5" class="node">
<title>CommonModule</title>
<polygon fill="#8dd3c7" stroke="black" points="427.67,-122 424.67,-126 403.67,-126 400.67,-122 316.33,-122 316.33,-86 427.67,-86 427.67,-122"/>
<text text-anchor="middle" x="372" y="-99.8" font-family="Times,serif" font-size="14.00">CommonModule</text>
</g>
<!-- CommonModule&#45;&gt;ApplicantModule -->
<g id="edge4" class="edge">
<title>CommonModule&#45;&gt;ApplicantModule</title>
<path fill="none" stroke="black" d="M404.23,-122.11C404.23,-122.11 404.23,-140.99 404.23,-140.99"/>
<polygon fill="black" stroke="black" points="400.73,-140.99 404.23,-150.99 407.73,-140.99 400.73,-140.99"/>
</g>
<!-- ApplicantRoutingModule -->
<g id="node6" class="node">
<title>ApplicantRoutingModule</title>
<polygon fill="#8dd3c7" stroke="black" points="297.88,-122 294.88,-126 273.88,-126 270.88,-122 138.12,-122 138.12,-86 297.88,-86 297.88,-122"/>
<text text-anchor="middle" x="218" y="-99.8" font-family="Times,serif" font-size="14.00">ApplicantRoutingModule</text>
</g>
<!-- ApplicantRoutingModule&#45;&gt;ApplicantModule -->
<g id="edge5" class="edge">
<title>ApplicantRoutingModule&#45;&gt;ApplicantModule</title>
<path fill="none" stroke="black" d="M218,-122.02C218,-139.37 218,-163 218,-163 218,-163 370.48,-163 370.48,-163"/>
<polygon fill="black" stroke="black" points="370.48,-166.5 380.48,-163 370.48,-159.5 370.48,-166.5"/>
</g>
<!-- FormsModule -->
<g id="node7" class="node">
<title>FormsModule</title>
<polygon fill="#8dd3c7" stroke="black" points="119.83,-122 116.83,-126 95.83,-126 92.83,-122 24.17,-122 24.17,-86 119.83,-86 119.83,-122"/>
<text text-anchor="middle" x="72" y="-99.8" font-family="Times,serif" font-size="14.00">FormsModule</text>
</g>
<!-- FormsModule&#45;&gt;ApplicantModule -->
<g id="edge6" class="edge">
<title>FormsModule&#45;&gt;ApplicantModule</title>
<path fill="none" stroke="black" d="M72,-122.28C72,-143.32 72,-175 72,-175 72,-175 370.41,-175 370.41,-175"/>
<polygon fill="black" stroke="black" points="370.41,-178.5 380.41,-175 370.41,-171.5 370.41,-178.5"/>
</g>
</g>
</svg>
