<?xml version="1.0" encoding="UTF-8" standalone="no"?>
<!DOCTYPE svg PUBLIC "-//W3C//DTD SVG 1.1//EN"
 "http://www.w3.org/Graphics/SVG/1.1/DTD/svg11.dtd">
<!-- Generated by graphviz version 2.47.0 (20210316.0004)
 -->
<!-- Title: dependencies Pages: 1 -->
<svg width="5274pt" height="360pt"
 viewBox="0.00 0.00 5274.00 360.00" xmlns="http://www.w3.org/2000/svg" xmlns:xlink="http://www.w3.org/1999/xlink">
<g id="graph0" class="graph" transform="scale(1 1) rotate(0) translate(4 356)">
<title>dependencies</title>
<polygon fill="white" stroke="transparent" points="-4,4 -4,-356 5270,-356 5270,4 -4,4"/>
<text text-anchor="start" x="2612.01" y="-42.4" font-family="Times-12" font-weight="bold" font-size="14.00">Legend</text>
<polygon fill="#ffffb3" stroke="transparent" points="2399,-10 2399,-30 2419,-30 2419,-10 2399,-10"/>
<text text-anchor="start" x="2422.63" y="-15.4" font-family="Times-12" font-size="14.00"> &#160;Declarations</text>
<polygon fill="#8dd3c7" stroke="transparent" points="2512,-10 2512,-30 2532,-30 2532,-10 2512,-10"/>
<text text-anchor="start" x="2535.73" y="-15.4" font-family="Times-12" font-size="14.00"> &#160;Module</text>
<polygon fill="#80b1d3" stroke="transparent" points="2598,-10 2598,-30 2618,-30 2618,-10 2598,-10"/>
<text text-anchor="start" x="2621.78" y="-15.4" font-family="Times-12" font-size="14.00"> &#160;Bootstrap</text>
<polygon fill="#fdb462" stroke="transparent" points="2695,-10 2695,-30 2715,-30 2715,-10 2695,-10"/>
<text text-anchor="start" x="2718.67" y="-15.4" font-family="Times-12" font-size="14.00"> &#160;Providers</text>
<polygon fill="#fb8072" stroke="transparent" points="2791,-10 2791,-30 2811,-30 2811,-10 2791,-10"/>
<text text-anchor="start" x="2814.73" y="-15.4" font-family="Times-12" font-size="14.00"> &#160;Exports</text>
<g id="clust1" class="cluster">
<title>cluster_AccountModule</title>
<polygon fill="none" stroke="black" stroke-dasharray="1,5" points="8,-70 8,-206 466,-206 466,-70 8,-70"/>
</g>
<g id="clust2" class="cluster">
<title>cluster_AccountModule_declarations</title>
<polygon fill="none" stroke="black" points="16,-78 16,-130 152,-130 152,-78 16,-78"/>
</g>
<g id="clust4" class="cluster">
<title>cluster_AccountModule_imports</title>
<polygon fill="none" stroke="black" points="160,-78 160,-130 458,-130 458,-78 160,-78"/>
</g>
<g id="clust8" class="cluster">
<title>cluster_AppModule</title>
<polygon fill="none" stroke="black" stroke-dasharray="1,5" points="2153,-146 2153,-344 2968,-344 2968,-146 2153,-146"/>
</g>
<g id="clust9" class="cluster">
<title>cluster_AppModule_declarations</title>
<polygon fill="none" stroke="black" points="2660,-154 2660,-206 2960,-206 2960,-154 2660,-154"/>
</g>
<g id="clust12" class="cluster">
<title>cluster_AppModule_imports</title>
<polygon fill="none" stroke="black" points="2161,-154 2161,-206 2652,-206 2652,-154 2161,-154"/>
</g>
<g id="clust14" class="cluster">
<title>cluster_AppModule_bootstrap</title>
<polygon fill="none" stroke="black" points="2461,-284 2461,-336 2585,-336 2585,-284 2461,-284"/>
</g>
<g id="clust16" class="cluster">
<title>cluster_ApplicantModule</title>
<polygon fill="none" stroke="black" stroke-dasharray="1,5" points="3377,-70 3377,-206 4073,-206 4073,-70 3377,-70"/>
</g>
<g id="clust17" class="cluster">
<title>cluster_ApplicantModule_declarations</title>
<polygon fill="none" stroke="black" points="3385,-78 3385,-130 3767,-130 3767,-78 3385,-78"/>
</g>
<g id="clust21" class="cluster">
<title>cluster_ApplicantModule_imports</title>
<polygon fill="none" stroke="black" points="3775,-78 3775,-130 4065,-130 4065,-78 3775,-78"/>
</g>
<g id="clust25" class="cluster">
<title>cluster_AuthModule</title>
<polygon fill="none" stroke="black" stroke-dasharray="1,5" points="4465,-70 4465,-206 4910,-206 4910,-70 4465,-70"/>
</g>
<g id="clust26" class="cluster">
<title>cluster_AuthModule_declarations</title>
<polygon fill="none" stroke="black" points="4473,-78 4473,-130 4746,-130 4746,-78 4473,-78"/>
</g>
<g id="clust29" class="cluster">
<title>cluster_AuthModule_imports</title>
<polygon fill="none" stroke="black" points="4754,-78 4754,-130 4902,-130 4902,-78 4754,-78"/>
</g>
<g id="clust33" class="cluster">
<title>cluster_AuthRoutingModule</title>
<polygon fill="none" stroke="black" stroke-dasharray="1,5" points="4918,-146 4918,-214 5258,-214 5258,-146 4918,-146"/>
</g>
<g id="clust35" class="cluster">
<title>cluster_AuthRoutingModule_imports</title>
<polygon fill="none" stroke="black" points="5052,-154 5052,-206 5250,-206 5250,-154 5052,-154"/>
</g>
<g id="clust36" class="cluster">
<title>cluster_AuthRoutingModule_exports</title>
<polygon fill="none" stroke="black" points="4926,-154 4926,-206 5044,-206 5044,-154 4926,-154"/>
</g>
<g id="clust39" class="cluster">
<title>cluster_CoreModule</title>
<polygon fill="none" stroke="black" stroke-dasharray="1,5" points="474,-70 474,-138 3369,-138 3369,-70 474,-70"/>
</g>
<g id="clust40" class="cluster">
<title>cluster_CoreModule_declarations</title>
<polygon fill="none" stroke="black" points="2805,-78 2805,-130 3361,-130 3361,-78 2805,-78"/>
</g>
<g id="clust45" class="cluster">
<title>cluster_CoreModule_imports</title>
<polygon fill="none" stroke="black" points="2547,-78 2547,-130 2797,-130 2797,-78 2547,-78"/>
</g>
<g id="clust46" class="cluster">
<title>cluster_CoreModule_exports</title>
<polygon fill="none" stroke="black" points="1968,-78 1968,-130 2539,-130 2539,-78 1968,-78"/>
</g>
<g id="clust48" class="cluster">
<title>cluster_CoreModule_providers</title>
<polygon fill="none" stroke="black" points="482,-78 482,-130 1960,-130 1960,-78 482,-78"/>
</g>
<g id="clust49" class="cluster">
<title>cluster_DataModule</title>
<polygon fill="none" stroke="black" stroke-dasharray="1,5" points="474,-154 474,-206 576,-206 576,-154 474,-154"/>
</g>
<g id="clust55" class="cluster">
<title>cluster_LeaderModule</title>
<polygon fill="none" stroke="black" stroke-dasharray="1,5" points="4081,-70 4081,-206 4257,-206 4257,-70 4081,-70"/>
</g>
<g id="clust59" class="cluster">
<title>cluster_LeaderModule_imports</title>
<polygon fill="none" stroke="black" points="4089,-78 4089,-130 4249,-130 4249,-78 4089,-78"/>
</g>
<g id="clust69" class="cluster">
<title>cluster_TechnicalModule</title>
<polygon fill="none" stroke="black" stroke-dasharray="1,5" points="4265,-70 4265,-206 4457,-206 4457,-70 4265,-70"/>
</g>
<g id="clust73" class="cluster">
<title>cluster_TechnicalModule_imports</title>
<polygon fill="none" stroke="black" points="4273,-78 4273,-130 4449,-130 4449,-78 4273,-78"/>
</g>
<!-- ProfileComponent -->
<g id="node1" class="node">
<title>ProfileComponent</title>
<polygon fill="#ffffb3" stroke="black" points="143.93,-122 24.07,-122 24.07,-86 143.93,-86 143.93,-122"/>
<text text-anchor="middle" x="84" y="-99.8" font-family="Times,serif" font-size="14.00">ProfileComponent</text>
</g>
<!-- AccountModule -->
<g id="node2" class="node">
<title>AccountModule</title>
<polygon fill="#8dd3c7" stroke="black" points="297.48,-198 294.48,-202 273.48,-202 270.48,-198 190.52,-198 190.52,-162 297.48,-162 297.48,-198"/>
<text text-anchor="middle" x="244" y="-175.8" font-family="Times,serif" font-size="14.00">AccountModule</text>
</g>
<!-- ProfileComponent&#45;&gt;AccountModule -->
<g id="edge1" class="edge">
<title>ProfileComponent&#45;&gt;AccountModule</title>
<path fill="none" stroke="black" d="M84,-122.01C84,-144.49 84,-180 84,-180 84,-180 180.28,-180 180.28,-180"/>
<polygon fill="black" stroke="black" points="180.28,-183.5 190.28,-180 180.28,-176.5 180.28,-183.5"/>
</g>
<!-- CommonModule -->
<g id="node3" class="node">
<title>CommonModule</title>
<polygon fill="#8dd3c7" stroke="black" points="449.67,-122 446.67,-126 425.67,-126 422.67,-122 338.33,-122 338.33,-86 449.67,-86 449.67,-122"/>
<text text-anchor="middle" x="394" y="-99.8" font-family="Times,serif" font-size="14.00">CommonModule</text>
</g>
<!-- CommonModule&#45;&gt;AccountModule -->
<g id="edge2" class="edge">
<title>CommonModule&#45;&gt;AccountModule</title>
<path fill="none" stroke="black" d="M435.88,-122.01C435.88,-144.49 435.88,-180 435.88,-180 435.88,-180 307.7,-180 307.7,-180"/>
<polygon fill="black" stroke="black" points="307.7,-176.5 297.7,-180 307.7,-183.5 307.7,-176.5"/>
</g>
<!-- CoreModule -->
<g id="node10" class="node">
<title>CoreModule</title>
<polygon fill="#8dd3c7" stroke="black" points="2372.26,-198 2369.26,-202 2348.26,-202 2345.26,-198 2285.74,-198 2285.74,-162 2372.26,-162 2372.26,-198"/>
<text text-anchor="middle" x="2329" y="-175.8" font-family="Times,serif" font-size="14.00">CoreModule</text>
</g>
<!-- CommonModule&#45;&gt;CoreModule -->
<g id="edge28" class="edge">
<title>CommonModule&#45;&gt;CoreModule</title>
<path fill="none" stroke="black" d="M366.08,-122.49C366.08,-134.14 366.08,-147 366.08,-147 366.08,-147 2291.4,-147 2291.4,-147 2291.4,-147 2291.4,-151.96 2291.4,-151.96"/>
<polygon fill="black" stroke="black" points="2287.9,-151.96 2291.4,-161.96 2294.9,-151.96 2287.9,-151.96"/>
</g>
<!-- SharedModule -->
<g id="node11" class="node">
<title>SharedModule</title>
<polygon fill="#8dd3c7" stroke="black" points="2267.42,-198 2264.42,-202 2243.42,-202 2240.42,-198 2168.58,-198 2168.58,-162 2267.42,-162 2267.42,-198"/>
<text text-anchor="middle" x="2218" y="-175.8" font-family="Times,serif" font-size="14.00">SharedModule</text>
</g>
<!-- CommonModule&#45;&gt;SharedModule -->
<g id="edge44" class="edge">
<title>CommonModule&#45;&gt;SharedModule</title>
<path fill="none" stroke="black" d="M352.12,-122.04C352.12,-134.56 352.12,-149 352.12,-149 352.12,-149 2195.2,-149 2195.2,-149 2195.2,-149 2195.2,-151.97 2195.2,-151.97"/>
<polygon fill="black" stroke="black" points="2191.7,-151.97 2195.2,-161.97 2198.7,-151.97 2191.7,-151.97"/>
</g>
<!-- ApplicantModule -->
<g id="node16" class="node">
<title>ApplicantModule</title>
<polygon fill="#8dd3c7" stroke="black" points="3699.26,-198 3696.26,-202 3675.26,-202 3672.26,-198 3584.74,-198 3584.74,-162 3699.26,-162 3699.26,-198"/>
<text text-anchor="middle" x="3642" y="-175.8" font-family="Times,serif" font-size="14.00">ApplicantModule</text>
</g>
<!-- CommonModule&#45;&gt;ApplicantModule -->
<g id="edge14" class="edge">
<title>CommonModule&#45;&gt;ApplicantModule</title>
<path fill="none" stroke="black" d="M380.04,-122.04C380.04,-129.75 380.04,-137 380.04,-137 380.04,-137 3595.2,-137 3595.2,-137 3595.2,-137 3595.2,-151.51 3595.2,-151.51"/>
<polygon fill="black" stroke="black" points="3591.7,-151.51 3595.2,-161.51 3598.7,-151.51 3591.7,-151.51"/>
</g>
<!-- AuthModule -->
<g id="node21" class="node">
<title>AuthModule</title>
<polygon fill="#8dd3c7" stroke="black" points="4583.55,-198 4580.55,-202 4559.55,-202 4556.55,-198 4496.45,-198 4496.45,-162 4583.55,-162 4583.55,-198"/>
<text text-anchor="middle" x="4540" y="-175.8" font-family="Times,serif" font-size="14.00">AuthModule</text>
</g>
<!-- CommonModule&#45;&gt;AuthModule -->
<g id="edge19" class="edge">
<title>CommonModule&#45;&gt;AuthModule</title>
<path fill="none" stroke="black" d="M421.92,-122.17C421.92,-124.45 421.92,-126 421.92,-126 421.92,-126 4518.11,-126 4518.11,-126 4518.11,-126 4518.11,-151.72 4518.11,-151.72"/>
<polygon fill="black" stroke="black" points="4514.61,-151.72 4518.11,-161.72 4521.61,-151.72 4514.61,-151.72"/>
</g>
<!-- DataModule -->
<g id="node38" class="node">
<title>DataModule</title>
<polygon fill="#8dd3c7" stroke="black" points="567.98,-198 564.98,-202 543.98,-202 540.98,-198 482.02,-198 482.02,-162 567.98,-162 567.98,-198"/>
<text text-anchor="middle" x="525" y="-175.8" font-family="Times,serif" font-size="14.00">DataModule</text>
</g>
<!-- CommonModule&#45;&gt;DataModule -->
<g id="edge38" class="edge">
<title>CommonModule&#45;&gt;DataModule</title>
<path fill="none" stroke="black" d="M449.72,-104C469.12,-104 486.13,-104 486.13,-104 486.13,-104 486.13,-151.99 486.13,-151.99"/>
<polygon fill="black" stroke="black" points="482.63,-151.99 486.13,-161.99 489.63,-151.99 482.63,-151.99"/>
</g>
<!-- LeaderModule -->
<g id="node39" class="node">
<title>LeaderModule</title>
<polygon fill="#8dd3c7" stroke="black" points="4187.41,-198 4184.41,-202 4163.41,-202 4160.41,-198 4088.59,-198 4088.59,-162 4187.41,-162 4187.41,-198"/>
<text text-anchor="middle" x="4138" y="-175.8" font-family="Times,serif" font-size="14.00">LeaderModule</text>
</g>
<!-- CommonModule&#45;&gt;LeaderModule -->
<g id="edge41" class="edge">
<title>CommonModule&#45;&gt;LeaderModule</title>
<path fill="none" stroke="black" d="M394,-122.24C394,-129.43 394,-136 394,-136 394,-136 4119.73,-136 4119.73,-136 4119.73,-136 4119.73,-151.85 4119.73,-151.85"/>
<polygon fill="black" stroke="black" points="4116.23,-151.85 4119.73,-161.85 4123.23,-151.85 4116.23,-151.85"/>
</g>
<!-- TechnicalModule -->
<g id="node41" class="node">
<title>TechnicalModule</title>
<polygon fill="#8dd3c7" stroke="black" points="4387.24,-198 4384.24,-202 4363.24,-202 4360.24,-198 4272.76,-198 4272.76,-162 4387.24,-162 4387.24,-198"/>
<text text-anchor="middle" x="4330" y="-175.8" font-family="Times,serif" font-size="14.00">TechnicalModule</text>
</g>
<!-- CommonModule&#45;&gt;TechnicalModule -->
<g id="edge47" class="edge">
<title>CommonModule&#45;&gt;TechnicalModule</title>
<path fill="none" stroke="black" d="M407.96,-122.17C407.96,-126.05 407.96,-129 407.96,-129 407.96,-129 4307.65,-129 4307.65,-129 4307.65,-129 4307.65,-151.88 4307.65,-151.88"/>
<polygon fill="black" stroke="black" points="4304.15,-151.88 4307.65,-161.88 4311.15,-151.88 4304.15,-151.88"/>
</g>
<!-- AccountRoutingModule -->
<g id="node4" class="node">
<title>AccountRoutingModule</title>
<polygon fill="#8dd3c7" stroke="black" points="320.09,-122 317.09,-126 296.09,-126 293.09,-122 167.91,-122 167.91,-86 320.09,-86 320.09,-122"/>
<text text-anchor="middle" x="244" y="-99.8" font-family="Times,serif" font-size="14.00">AccountRoutingModule</text>
</g>
<!-- AccountRoutingModule&#45;&gt;AccountModule -->
<g id="edge3" class="edge">
<title>AccountRoutingModule&#45;&gt;AccountModule</title>
<path fill="none" stroke="black" d="M244,-122.01C244,-122.01 244,-151.85 244,-151.85"/>
<polygon fill="black" stroke="black" points="240.5,-151.85 244,-161.85 247.5,-151.85 240.5,-151.85"/>
</g>
<!-- AppComponent -->
<g id="node5" class="node">
<title>AppComponent</title>
<polygon fill="#ffffb3" stroke="black" points="2951.94,-198 2846.06,-198 2846.06,-162 2951.94,-162 2951.94,-198"/>
<text text-anchor="middle" x="2899" y="-175.8" font-family="Times,serif" font-size="14.00">AppComponent</text>
</g>
<!-- AppModule -->
<g id="node7" class="node">
<title>AppModule</title>
<polygon fill="#8dd3c7" stroke="black" points="2564.66,-263 2561.66,-267 2540.66,-267 2537.66,-263 2481.34,-263 2481.34,-227 2564.66,-227 2564.66,-263"/>
<text text-anchor="middle" x="2523" y="-240.8" font-family="Times,serif" font-size="14.00">AppModule</text>
</g>
<!-- AppComponent&#45;&gt;AppModule -->
<g id="edge4" class="edge">
<title>AppComponent&#45;&gt;AppModule</title>
<path fill="none" stroke="black" d="M2899,-198.28C2899,-219.32 2899,-251 2899,-251 2899,-251 2574.68,-251 2574.68,-251"/>
<polygon fill="black" stroke="black" points="2574.68,-247.5 2564.68,-251 2574.68,-254.5 2574.68,-247.5"/>
</g>
<!-- AdminLayoutComponent -->
<g id="node6" class="node">
<title>AdminLayoutComponent</title>
<polygon fill="#ffffb3" stroke="black" points="2827.88,-198 2668.12,-198 2668.12,-162 2827.88,-162 2827.88,-198"/>
<text text-anchor="middle" x="2748" y="-175.8" font-family="Times,serif" font-size="14.00">AdminLayoutComponent</text>
</g>
<!-- AdminLayoutComponent&#45;&gt;AppModule -->
<g id="edge5" class="edge">
<title>AdminLayoutComponent&#45;&gt;AppModule</title>
<path fill="none" stroke="black" d="M2748,-198.02C2748,-215.37 2748,-239 2748,-239 2748,-239 2574.79,-239 2574.79,-239"/>
<polygon fill="black" stroke="black" points="2574.79,-235.5 2564.79,-239 2574.79,-242.5 2574.79,-235.5"/>
</g>
<!-- AppComponent  -->
<g id="node12" class="node">
<title>AppComponent </title>
<polygon fill="#80b1d3" stroke="black" points="2577.44,-328 2468.56,-328 2468.56,-292 2577.44,-292 2577.44,-328"/>
<text text-anchor="middle" x="2523" y="-305.8" font-family="Times,serif" font-size="14.00">AppComponent </text>
</g>
<!-- AppModule&#45;&gt;AppComponent  -->
<g id="edge10" class="edge">
<title>AppModule&#45;&gt;AppComponent </title>
<path fill="none" stroke="black" stroke-dasharray="1,5" d="M2523,-263.11C2523,-263.11 2523,-281.99 2523,-281.99"/>
<polygon fill="black" stroke="black" points="2519.5,-281.99 2523,-291.99 2526.5,-281.99 2519.5,-281.99"/>
</g>
<!-- BrowserModule -->
<g id="node8" class="node">
<title>BrowserModule</title>
<polygon fill="#8dd3c7" stroke="black" points="2644.47,-198 2641.47,-202 2620.47,-202 2617.47,-198 2537.53,-198 2537.53,-162 2644.47,-162 2644.47,-198"/>
<text text-anchor="middle" x="2591" y="-175.8" font-family="Times,serif" font-size="14.00">BrowserModule</text>
</g>
<!-- BrowserModule&#45;&gt;AppModule -->
<g id="edge6" class="edge">
<title>BrowserModule&#45;&gt;AppModule</title>
<path fill="none" stroke="black" d="M2551.17,-198.11C2551.17,-198.11 2551.17,-216.99 2551.17,-216.99"/>
<polygon fill="black" stroke="black" points="2547.67,-216.99 2551.17,-226.99 2554.67,-216.99 2547.67,-216.99"/>
</g>
<!-- AppRoutingModule -->
<g id="node9" class="node">
<title>AppRoutingModule</title>
<polygon fill="#8dd3c7" stroke="black" points="2519.27,-198 2516.27,-202 2495.27,-202 2492.27,-198 2390.73,-198 2390.73,-162 2519.27,-162 2519.27,-198"/>
<text text-anchor="middle" x="2455" y="-175.8" font-family="Times,serif" font-size="14.00">AppRoutingModule</text>
</g>
<!-- AppRoutingModule&#45;&gt;AppModule -->
<g id="edge7" class="edge">
<title>AppRoutingModule&#45;&gt;AppModule</title>
<path fill="none" stroke="black" d="M2500.28,-198.11C2500.28,-198.11 2500.28,-216.99 2500.28,-216.99"/>
<polygon fill="black" stroke="black" points="2496.78,-216.99 2500.28,-226.99 2503.78,-216.99 2496.78,-216.99"/>
</g>
<!-- CoreModule&#45;&gt;AppModule -->
<g id="edge8" class="edge">
<title>CoreModule&#45;&gt;AppModule</title>
<path fill="none" stroke="black" d="M2329,-198.02C2329,-215.37 2329,-239 2329,-239 2329,-239 2470.9,-239 2470.9,-239"/>
<polygon fill="black" stroke="black" points="2470.9,-242.5 2480.9,-239 2470.9,-235.5 2470.9,-242.5"/>
</g>
<!-- FooterComponent  -->
<g id="node31" class="node">
<title>FooterComponent </title>
<polygon fill="#fb8072" stroke="black" points="2530.88,-122 2409.12,-122 2409.12,-86 2530.88,-86 2530.88,-122"/>
<text text-anchor="middle" x="2470" y="-99.8" font-family="Times,serif" font-size="14.00">FooterComponent </text>
</g>
<!-- CoreModule&#45;&gt;FooterComponent  -->
<g id="edge31" class="edge">
<title>CoreModule&#45;&gt;FooterComponent </title>
<path fill="none" stroke="black" stroke-dasharray="5,2" d="M2366.6,-161.8C2366.6,-155.97 2366.6,-151 2366.6,-151 2366.6,-151 2464.35,-151 2464.35,-151 2464.35,-151 2464.35,-132.04 2464.35,-132.04"/>
<polygon fill="black" stroke="black" points="2467.85,-132.04 2464.35,-122.04 2460.85,-132.04 2467.85,-132.04"/>
</g>
<!-- HeaderComponent  -->
<g id="node32" class="node">
<title>HeaderComponent </title>
<polygon fill="#fb8072" stroke="black" points="2391.74,-122 2266.26,-122 2266.26,-86 2391.74,-86 2391.74,-122"/>
<text text-anchor="middle" x="2329" y="-99.8" font-family="Times,serif" font-size="14.00">HeaderComponent </text>
</g>
<!-- CoreModule&#45;&gt;HeaderComponent  -->
<g id="edge32" class="edge">
<title>CoreModule&#45;&gt;HeaderComponent </title>
<path fill="none" stroke="black" stroke-dasharray="5,2" d="M2326.11,-161.99C2326.11,-161.99 2326.11,-132.15 2326.11,-132.15"/>
<polygon fill="black" stroke="black" points="2329.61,-132.15 2326.11,-122.15 2322.61,-132.15 2329.61,-132.15"/>
</g>
<!-- NavbarComponent  -->
<g id="node33" class="node">
<title>NavbarComponent </title>
<polygon fill="#fb8072" stroke="black" points="2248.03,-122 2121.97,-122 2121.97,-86 2248.03,-86 2248.03,-122"/>
<text text-anchor="middle" x="2185" y="-99.8" font-family="Times,serif" font-size="14.00">NavbarComponent </text>
</g>
<!-- CoreModule&#45;&gt;NavbarComponent  -->
<g id="edge33" class="edge">
<title>CoreModule&#45;&gt;NavbarComponent </title>
<path fill="none" stroke="black" stroke-dasharray="5,2" d="M2320.32,-161.9C2320.32,-150.91 2320.32,-139 2320.32,-139 2320.32,-139 2221.61,-139 2221.61,-139 2221.61,-139 2221.61,-132.32 2221.61,-132.32"/>
<polygon fill="black" stroke="black" points="2225.11,-132.32 2221.61,-122.32 2218.11,-132.32 2225.11,-132.32"/>
</g>
<!-- SidebarComponent  -->
<g id="node34" class="node">
<title>SidebarComponent </title>
<polygon fill="#fb8072" stroke="black" points="2103.6,-122 1976.4,-122 1976.4,-86 2103.6,-86 2103.6,-122"/>
<text text-anchor="middle" x="2040" y="-99.8" font-family="Times,serif" font-size="14.00">SidebarComponent </text>
</g>
<!-- CoreModule&#45;&gt;SidebarComponent  -->
<g id="edge34" class="edge">
<title>CoreModule&#45;&gt;SidebarComponent </title>
<path fill="none" stroke="black" stroke-dasharray="5,2" d="M2314.54,-161.87C2314.54,-151.69 2314.54,-141 2314.54,-141 2314.54,-141 2040,-141 2040,-141 2040,-141 2040,-132.07 2040,-132.07"/>
<polygon fill="black" stroke="black" points="2043.5,-132.07 2040,-122.07 2036.5,-132.07 2043.5,-132.07"/>
</g>
<!-- SharedModule&#45;&gt;AppModule -->
<g id="edge9" class="edge">
<title>SharedModule&#45;&gt;AppModule</title>
<path fill="none" stroke="black" d="M2218,-198.28C2218,-219.32 2218,-251 2218,-251 2218,-251 2471.23,-251 2471.23,-251"/>
<polygon fill="black" stroke="black" points="2471.23,-254.5 2481.23,-251 2471.23,-247.5 2471.23,-254.5"/>
</g>
<!-- ListComponent -->
<g id="node13" class="node">
<title>ListComponent</title>
<polygon fill="#ffffb3" stroke="black" points="3758.61,-122 3655.39,-122 3655.39,-86 3758.61,-86 3758.61,-122"/>
<text text-anchor="middle" x="3707" y="-99.8" font-family="Times,serif" font-size="14.00">ListComponent</text>
</g>
<!-- ListComponent&#45;&gt;ApplicantModule -->
<g id="edge11" class="edge">
<title>ListComponent&#45;&gt;ApplicantModule</title>
<path fill="none" stroke="black" d="M3677.41,-122.01C3677.41,-122.01 3677.41,-151.85 3677.41,-151.85"/>
<polygon fill="black" stroke="black" points="3673.91,-151.85 3677.41,-161.85 3680.91,-151.85 3673.91,-151.85"/>
</g>
<!-- ListComponent&#45;&gt;LeaderModule -->
<g id="edge39" class="edge">
<title>ListComponent&#45;&gt;LeaderModule</title>
<path fill="none" stroke="black" d="M3738.83,-122.03C3738.83,-146.98 3738.83,-189 3738.83,-189 3738.83,-189 4078.65,-189 4078.65,-189"/>
<polygon fill="black" stroke="black" points="4078.65,-192.5 4088.65,-189 4078.65,-185.5 4078.65,-192.5"/>
</g>
<!-- ListComponent&#45;&gt;TechnicalModule -->
<g id="edge46" class="edge">
<title>ListComponent&#45;&gt;TechnicalModule</title>
<path fill="none" stroke="black" d="M3719.1,-122.21C3719.1,-127.55 3719.1,-132 3719.1,-132 3719.1,-132 4275.44,-132 4275.44,-132 4275.44,-132 4275.44,-151.85 4275.44,-151.85"/>
<polygon fill="black" stroke="black" points="4271.94,-151.85 4275.44,-161.85 4278.94,-151.85 4271.94,-151.85"/>
</g>
<!-- DetailsComponent -->
<g id="node14" class="node">
<title>DetailsComponent</title>
<polygon fill="#ffffb3" stroke="black" points="3637.48,-122 3516.52,-122 3516.52,-86 3637.48,-86 3637.48,-122"/>
<text text-anchor="middle" x="3577" y="-99.8" font-family="Times,serif" font-size="14.00">DetailsComponent</text>
</g>
<!-- DetailsComponent&#45;&gt;ApplicantModule -->
<g id="edge12" class="edge">
<title>DetailsComponent&#45;&gt;ApplicantModule</title>
<path fill="none" stroke="black" d="M3605.77,-122.01C3605.77,-122.01 3605.77,-151.85 3605.77,-151.85"/>
<polygon fill="black" stroke="black" points="3602.27,-151.85 3605.77,-161.85 3609.27,-151.85 3602.27,-151.85"/>
</g>
<!-- DetailsComponent&#45;&gt;LeaderModule -->
<g id="edge40" class="edge">
<title>DetailsComponent&#45;&gt;LeaderModule</title>
<path fill="none" stroke="black" d="M3616.34,-122.14C3616.34,-128.46 3616.34,-134 3616.34,-134 3616.34,-134 4142.22,-134 4142.22,-134 4142.22,-134 4142.22,-151.82 4142.22,-151.82"/>
<polygon fill="black" stroke="black" points="4138.72,-151.82 4142.22,-161.82 4145.72,-151.82 4138.72,-151.82"/>
</g>
<!-- DetailsComponent&#45;&gt;TechnicalModule -->
<g id="edge45" class="edge">
<title>DetailsComponent&#45;&gt;TechnicalModule</title>
<path fill="none" stroke="black" d="M3626.92,-122.12C3626.92,-124.97 3626.92,-127 3626.92,-127 3626.92,-127 4334.22,-127 4334.22,-127 4334.22,-127 4334.22,-151.76 4334.22,-151.76"/>
<polygon fill="black" stroke="black" points="4330.72,-151.76 4334.22,-161.76 4337.72,-151.76 4330.72,-151.76"/>
</g>
<!-- AddComponent -->
<g id="node15" class="node">
<title>AddComponent</title>
<polygon fill="#ffffb3" stroke="black" points="3498.94,-122 3393.06,-122 3393.06,-86 3498.94,-86 3498.94,-122"/>
<text text-anchor="middle" x="3446" y="-99.8" font-family="Times,serif" font-size="14.00">AddComponent</text>
</g>
<!-- AddComponent&#45;&gt;ApplicantModule -->
<g id="edge13" class="edge">
<title>AddComponent&#45;&gt;ApplicantModule</title>
<path fill="none" stroke="black" d="M3446,-122.01C3446,-144.49 3446,-180 3446,-180 3446,-180 3574.52,-180 3574.52,-180"/>
<polygon fill="black" stroke="black" points="3574.52,-183.5 3584.52,-180 3574.52,-176.5 3574.52,-183.5"/>
</g>
<!-- ApplicantRoutingModule -->
<g id="node17" class="node">
<title>ApplicantRoutingModule</title>
<polygon fill="#8dd3c7" stroke="black" points="3942.88,-122 3939.88,-126 3918.88,-126 3915.88,-122 3783.12,-122 3783.12,-86 3942.88,-86 3942.88,-122"/>
<text text-anchor="middle" x="3863" y="-99.8" font-family="Times,serif" font-size="14.00">ApplicantRoutingModule</text>
</g>
<!-- ApplicantRoutingModule&#45;&gt;ApplicantModule -->
<g id="edge15" class="edge">
<title>ApplicantRoutingModule&#45;&gt;ApplicantModule</title>
<path fill="none" stroke="black" d="M3863,-122.31C3863,-142.15 3863,-171 3863,-171 3863,-171 3709.49,-171 3709.49,-171"/>
<polygon fill="black" stroke="black" points="3709.49,-167.5 3699.49,-171 3709.49,-174.5 3709.49,-167.5"/>
</g>
<!-- FormsModule -->
<g id="node18" class="node">
<title>FormsModule</title>
<polygon fill="#8dd3c7" stroke="black" points="4056.83,-122 4053.83,-126 4032.83,-126 4029.83,-122 3961.17,-122 3961.17,-86 4056.83,-86 4056.83,-122"/>
<text text-anchor="middle" x="4009" y="-99.8" font-family="Times,serif" font-size="14.00">FormsModule</text>
</g>
<!-- FormsModule&#45;&gt;ApplicantModule -->
<g id="edge16" class="edge">
<title>FormsModule&#45;&gt;ApplicantModule</title>
<path fill="none" stroke="black" d="M4032.83,-122.01C4032.83,-144.49 4032.83,-180 4032.83,-180 4032.83,-180 3709.67,-180 3709.67,-180"/>
<polygon fill="black" stroke="black" points="3709.67,-176.5 3699.67,-180 3709.67,-183.5 3709.67,-176.5"/>
</g>
<!-- FormsModule&#45;&gt;AuthModule -->
<g id="edge21" class="edge">
<title>FormsModule&#45;&gt;AuthModule</title>
<path fill="none" stroke="black" d="M4009,-122.15C4009,-123.3 4009,-124 4009,-124 4009,-124 4540,-124 4540,-124 4540,-124 4540,-151.97 4540,-151.97"/>
<polygon fill="black" stroke="black" points="4536.5,-151.97 4540,-161.97 4543.5,-151.97 4536.5,-151.97"/>
</g>
<!-- FormsModule&#45;&gt;LeaderModule -->
<g id="edge43" class="edge">
<title>FormsModule&#45;&gt;LeaderModule</title>
<path fill="none" stroke="black" d="M4056.9,-104C4075.77,-104 4093.02,-104 4093.02,-104 4093.02,-104 4093.02,-151.99 4093.02,-151.99"/>
<polygon fill="black" stroke="black" points="4089.52,-151.99 4093.02,-161.99 4096.52,-151.99 4089.52,-151.99"/>
</g>
<!-- FormsModule&#45;&gt;TechnicalModule -->
<g id="edge49" class="edge">
<title>FormsModule&#45;&gt;TechnicalModule</title>
<path fill="none" stroke="black" d="M3985.17,-122.16C3985.17,-127.04 3985.17,-131 3985.17,-131 3985.17,-131 4278.26,-131 4278.26,-131 4278.26,-131 4278.26,-151.75 4278.26,-151.75"/>
<polygon fill="black" stroke="black" points="4274.76,-151.75 4278.26,-161.75 4281.76,-151.75 4274.76,-151.75"/>
</g>
<!-- SingupComponent -->
<g id="node19" class="node">
<title>SingupComponent</title>
<polygon fill="#ffffb3" stroke="black" points="4737.51,-122 4616.49,-122 4616.49,-86 4737.51,-86 4737.51,-122"/>
<text text-anchor="middle" x="4677" y="-99.8" font-family="Times,serif" font-size="14.00">SingupComponent</text>
</g>
<!-- SingupComponent&#45;&gt;AuthModule -->
<g id="edge17" class="edge">
<title>SingupComponent&#45;&gt;AuthModule</title>
<path fill="none" stroke="black" d="M4677,-122.03C4677,-142.77 4677,-174 4677,-174 4677,-174 4593.72,-174 4593.72,-174"/>
<polygon fill="black" stroke="black" points="4593.72,-170.5 4583.72,-174 4593.72,-177.5 4593.72,-170.5"/>
</g>
<!-- SigninComponent -->
<g id="node20" class="node">
<title>SigninComponent</title>
<polygon fill="#ffffb3" stroke="black" points="4598.9,-122 4481.1,-122 4481.1,-86 4598.9,-86 4598.9,-122"/>
<text text-anchor="middle" x="4540" y="-99.8" font-family="Times,serif" font-size="14.00">SigninComponent</text>
</g>
<!-- SigninComponent&#45;&gt;AuthModule -->
<g id="edge18" class="edge">
<title>SigninComponent&#45;&gt;AuthModule</title>
<path fill="none" stroke="black" d="M4561.89,-122.01C4561.89,-122.01 4561.89,-151.85 4561.89,-151.85"/>
<polygon fill="black" stroke="black" points="4558.39,-151.85 4561.89,-161.85 4565.39,-151.85 4558.39,-151.85"/>
</g>
<!-- AuthRoutingModule -->
<g id="node22" class="node">
<title>AuthRoutingModule</title>
<polygon fill="#8dd3c7" stroke="black" points="4894.17,-122 4891.17,-126 4870.17,-126 4867.17,-122 4761.83,-122 4761.83,-86 4894.17,-86 4894.17,-122"/>
<text text-anchor="middle" x="4828" y="-99.8" font-family="Times,serif" font-size="14.00">AuthRoutingModule</text>
</g>
<!-- AuthRoutingModule&#45;&gt;AuthModule -->
<g id="edge20" class="edge">
<title>AuthRoutingModule&#45;&gt;AuthModule</title>
<path fill="none" stroke="black" d="M4828,-122.2C4828,-146.36 4828,-186 4828,-186 4828,-186 4593.74,-186 4593.74,-186"/>
<polygon fill="black" stroke="black" points="4593.74,-182.5 4583.74,-186 4593.74,-189.5 4593.74,-182.5"/>
</g>
<!-- RouterModule  -->
<g id="node24" class="node">
<title>RouterModule </title>
<polygon fill="#fb8072" stroke="black" points="5035.65,-198 4934.35,-198 4934.35,-162 5035.65,-162 5035.65,-198"/>
<text text-anchor="middle" x="4985" y="-175.8" font-family="Times,serif" font-size="14.00">RouterModule </text>
</g>
<!-- AuthRoutingModule&#45;&gt;RouterModule  -->
<g id="edge23" class="edge">
<title>AuthRoutingModule&#45;&gt;RouterModule </title>
<path fill="none" stroke="black" stroke-dasharray="5,2" d="M4894.58,-110C4937.37,-110 4985,-110 4985,-110 4985,-110 4985,-151.97 4985,-151.97"/>
<polygon fill="black" stroke="black" points="4981.5,-151.97 4985,-161.97 4988.5,-151.97 4981.5,-151.97"/>
</g>
<!-- RouterModule.forChild(args) -->
<g id="node23" class="node">
<title>RouterModule.forChild(args)</title>
<polygon fill="#8dd3c7" stroke="black" points="5241.73,-198 5238.73,-202 5217.73,-202 5214.73,-198 5060.27,-198 5060.27,-162 5241.73,-162 5241.73,-198"/>
<text text-anchor="middle" x="5151" y="-175.8" font-family="Times,serif" font-size="14.00">RouterModule.forChild(args)</text>
</g>
<!-- RouterModule.forChild(args)&#45;&gt;AuthRoutingModule -->
<g id="edge22" class="edge">
<title>RouterModule.forChild(args)&#45;&gt;AuthRoutingModule</title>
<path fill="none" stroke="black" d="M5151,-161.8C5151,-137.64 5151,-98 5151,-98 5151,-98 4904.53,-98 4904.53,-98"/>
<polygon fill="black" stroke="black" points="4904.53,-94.5 4894.53,-98 4904.53,-101.5 4904.53,-94.5"/>
</g>
<!-- FooterComponent -->
<g id="node25" class="node">
<title>FooterComponent</title>
<polygon fill="#ffffb3" stroke="black" points="3352.88,-122 3235.12,-122 3235.12,-86 3352.88,-86 3352.88,-122"/>
<text text-anchor="middle" x="3294" y="-99.8" font-family="Times,serif" font-size="14.00">FooterComponent</text>
</g>
<!-- FooterComponent&#45;&gt;CoreModule -->
<g id="edge24" class="edge">
<title>FooterComponent&#45;&gt;CoreModule</title>
<path fill="none" stroke="black" d="M3294,-122.04C3294,-138.73 3294,-161 3294,-161 3294,-161 2360.81,-161 2360.81,-161 2360.81,-161 2360.81,-161.08 2360.81,-161.08"/>
<polygon fill="black" stroke="black" points="2357.31,-151.82 2360.81,-161.82 2364.31,-151.82 2357.31,-151.82"/>
</g>
<!-- HeaderComponent -->
<g id="node26" class="node">
<title>HeaderComponent</title>
<polygon fill="#ffffb3" stroke="black" points="3216.74,-122 3095.26,-122 3095.26,-86 3216.74,-86 3216.74,-122"/>
<text text-anchor="middle" x="3156" y="-99.8" font-family="Times,serif" font-size="14.00">HeaderComponent</text>
</g>
<!-- HeaderComponent&#45;&gt;CoreModule -->
<g id="edge25" class="edge">
<title>HeaderComponent&#45;&gt;CoreModule</title>
<path fill="none" stroke="black" d="M3156,-122.01C3156,-138.05 3156,-159 3156,-159 3156,-159 2355.03,-159 2355.03,-159 2355.03,-159 2355.03,-159.29 2355.03,-159.29"/>
<polygon fill="black" stroke="black" points="2351.53,-151.92 2355.03,-161.92 2358.53,-151.92 2351.53,-151.92"/>
</g>
<!-- NavbarComponent -->
<g id="node27" class="node">
<title>NavbarComponent</title>
<polygon fill="#ffffb3" stroke="black" points="3077.03,-122 2954.97,-122 2954.97,-86 3077.03,-86 3077.03,-122"/>
<text text-anchor="middle" x="3016" y="-99.8" font-family="Times,serif" font-size="14.00">NavbarComponent</text>
</g>
<!-- NavbarComponent&#45;&gt;CoreModule -->
<g id="edge26" class="edge">
<title>NavbarComponent&#45;&gt;CoreModule</title>
<path fill="none" stroke="black" d="M3016,-122.24C3016,-137.57 3016,-157 3016,-157 3016,-157 2349.24,-157 2349.24,-157 2349.24,-157 2349.24,-157.49 2349.24,-157.49"/>
<polygon fill="black" stroke="black" points="2345.74,-151.88 2349.24,-161.88 2352.74,-151.88 2345.74,-151.88"/>
</g>
<!-- SidebarComponent -->
<g id="node28" class="node">
<title>SidebarComponent</title>
<polygon fill="#ffffb3" stroke="black" points="2937.1,-122 2812.9,-122 2812.9,-86 2937.1,-86 2937.1,-122"/>
<text text-anchor="middle" x="2875" y="-99.8" font-family="Times,serif" font-size="14.00">SidebarComponent</text>
</g>
<!-- SidebarComponent&#45;&gt;CoreModule -->
<g id="edge27" class="edge">
<title>SidebarComponent&#45;&gt;CoreModule</title>
<path fill="none" stroke="black" d="M2820.45,-122.19C2820.45,-137.18 2820.45,-156 2820.45,-156 2820.45,-156 2343.46,-156 2343.46,-156 2343.46,-156 2343.46,-156.58 2343.46,-156.58"/>
<polygon fill="black" stroke="black" points="2339.96,-151.81 2343.46,-161.81 2346.96,-151.81 2339.96,-151.81"/>
</g>
<!-- HttpClientModule -->
<g id="node29" class="node">
<title>HttpClientModule</title>
<polygon fill="#8dd3c7" stroke="black" points="2789.16,-122 2786.16,-126 2765.16,-126 2762.16,-122 2670.84,-122 2670.84,-86 2789.16,-86 2789.16,-122"/>
<text text-anchor="middle" x="2730" y="-99.8" font-family="Times,serif" font-size="14.00">HttpClientModule</text>
</g>
<!-- HttpClientModule&#45;&gt;CoreModule -->
<g id="edge29" class="edge">
<title>HttpClientModule&#45;&gt;CoreModule</title>
<path fill="none" stroke="black" d="M2730,-122.05C2730,-136.37 2730,-154 2730,-154 2730,-154 2337.68,-154 2337.68,-154 2337.68,-154 2337.68,-154.79 2337.68,-154.79"/>
<polygon fill="black" stroke="black" points="2334.18,-151.94 2337.68,-161.94 2341.18,-151.94 2334.18,-151.94"/>
</g>
<!-- RouterModule -->
<g id="node30" class="node">
<title>RouterModule</title>
<polygon fill="#8dd3c7" stroke="black" points="2652.65,-122 2649.65,-126 2628.65,-126 2625.65,-122 2555.35,-122 2555.35,-86 2652.65,-86 2652.65,-122"/>
<text text-anchor="middle" x="2604" y="-99.8" font-family="Times,serif" font-size="14.00">RouterModule</text>
</g>
<!-- RouterModule&#45;&gt;CoreModule -->
<g id="edge30" class="edge">
<title>RouterModule&#45;&gt;CoreModule</title>
<path fill="none" stroke="black" d="M2599.83,-122.15C2599.83,-135.74 2599.83,-152 2599.83,-152 2599.83,-152 2331.89,-152 2331.89,-152 2331.89,-152 2331.89,-152.98 2331.89,-152.98"/>
<polygon fill="black" stroke="black" points="2328.39,-151.79 2331.89,-161.79 2335.39,-151.79 2328.39,-151.79"/>
</g>
<!-- CookieService -->
<g id="node35" class="node">
<title>CookieService</title>
<ellipse fill="#fdb462" stroke="black" cx="1212" cy="-104" rx="67.78" ry="18"/>
<text text-anchor="middle" x="1212" y="-99.8" font-family="Times,serif" font-size="14.00">CookieService</text>
</g>
<!-- CookieService&#45;&gt;CoreModule -->
<g id="edge35" class="edge">
<title>CookieService&#45;&gt;CoreModule</title>
<path fill="none" stroke="black" d="M1212,-122.13C1212,-132.71 1212,-144 1212,-144 1212,-144 2302.97,-144 2302.97,-144 2302.97,-144 2302.97,-151.58 2302.97,-151.58"/>
<polygon fill="black" stroke="black" points="2299.47,-151.58 2302.97,-161.58 2306.47,-151.58 2299.47,-151.58"/>
</g>
<!-- { provide: HTTP_INTERCEPTORS, useClass: HttpTokenInterceptor, multi: &#160;} -->
<g id="node36" class="node">
<title>{ provide: HTTP_INTERCEPTORS, useClass: HttpTokenInterceptor, multi: &#160;}</title>
<ellipse fill="#fdb462" stroke="black" cx="808" cy="-104" rx="317.99" ry="18"/>
<text text-anchor="middle" x="808" y="-99.8" font-family="Times,serif" font-size="14.00">{ provide: HTTP_INTERCEPTORS, useClass: HttpTokenInterceptor, multi: &#160;}</text>
</g>
<!-- { provide: HTTP_INTERCEPTORS, useClass: HttpTokenInterceptor, multi: &#160;}&#45;&gt;CoreModule -->
<g id="edge36" class="edge">
<title>{ provide: HTTP_INTERCEPTORS, useClass: HttpTokenInterceptor, multi: &#160;}&#45;&gt;CoreModule</title>
<path fill="none" stroke="black" d="M846.87,-122.06C846.87,-133.44 846.87,-146 846.87,-146 846.87,-146 2297.19,-146 2297.19,-146 2297.19,-146 2297.19,-151.81 2297.19,-151.81"/>
<polygon fill="black" stroke="black" points="2293.69,-151.81 2297.19,-161.81 2300.69,-151.81 2293.69,-151.81"/>
</g>
<!-- { provide: HTTP_INTERCEPTORS, useClass: ErrorHandlerInterceptor, multi: &#160;} -->
<g id="node37" class="node">
<title>{ provide: HTTP_INTERCEPTORS, useClass: ErrorHandlerInterceptor, multi: &#160;}</title>
<ellipse fill="#fdb462" stroke="black" cx="1625" cy="-104" rx="327.25" ry="18"/>
<text text-anchor="middle" x="1625" y="-99.8" font-family="Times,serif" font-size="14.00">{ provide: HTTP_INTERCEPTORS, useClass: ErrorHandlerInterceptor, multi: &#160;}</text>
</g>
<!-- { provide: HTTP_INTERCEPTORS, useClass: ErrorHandlerInterceptor, multi: &#160;}&#45;&gt;CoreModule -->
<g id="edge37" class="edge">
<title>{ provide: HTTP_INTERCEPTORS, useClass: ErrorHandlerInterceptor, multi: &#160;}&#45;&gt;CoreModule</title>
<path fill="none" stroke="black" d="M1625,-122.11C1625,-131.9 1625,-142 1625,-142 1625,-142 2308.76,-142 2308.76,-142 2308.76,-142 2308.76,-151.89 2308.76,-151.89"/>
<polygon fill="black" stroke="black" points="2305.26,-151.89 2308.76,-161.89 2312.26,-151.89 2305.26,-151.89"/>
</g>
<!-- LeaderRoutingModule -->
<g id="node40" class="node">
<title>LeaderRoutingModule</title>
<polygon fill="#8dd3c7" stroke="black" points="4240.53,-122 4237.53,-126 4216.53,-126 4213.53,-122 4097.47,-122 4097.47,-86 4240.53,-86 4240.53,-122"/>
<text text-anchor="middle" x="4169" y="-99.8" font-family="Times,serif" font-size="14.00">LeaderRoutingModule</text>
</g>
<!-- LeaderRoutingModule&#45;&gt;LeaderModule -->
<g id="edge42" class="edge">
<title>LeaderRoutingModule&#45;&gt;LeaderModule</title>
<path fill="none" stroke="black" d="M4164.71,-122.01C4164.71,-122.01 4164.71,-151.85 4164.71,-151.85"/>
<polygon fill="black" stroke="black" points="4161.21,-151.85 4164.71,-161.85 4168.21,-151.85 4161.21,-151.85"/>
</g>
<!-- TechnicalRoutingModule -->
<g id="node42" class="node">
<title>TechnicalRoutingModule</title>
<polygon fill="#8dd3c7" stroke="black" points="4440.86,-122 4437.86,-126 4416.86,-126 4413.86,-122 4281.14,-122 4281.14,-86 4440.86,-86 4440.86,-122"/>
<text text-anchor="middle" x="4361" y="-99.8" font-family="Times,serif" font-size="14.00">TechnicalRoutingModule</text>
</g>
<!-- TechnicalRoutingModule&#45;&gt;TechnicalModule -->
<g id="edge48" class="edge">
<title>TechnicalRoutingModule&#45;&gt;TechnicalModule</title>
<path fill="none" stroke="black" d="M4360.8,-122.01C4360.8,-122.01 4360.8,-151.85 4360.8,-151.85"/>
<polygon fill="black" stroke="black" points="4357.3,-151.85 4360.8,-161.85 4364.3,-151.85 4357.3,-151.85"/>
</g>
</g>
</svg>
