<?xml version="1.0" encoding="UTF-8" standalone="no"?>
<!DOCTYPE svg PUBLIC "-//W3C//DTD SVG 1.1//EN"
 "http://www.w3.org/Graphics/SVG/1.1/DTD/svg11.dtd">
<!-- Generated by graphviz version 2.47.0 (20210316.0004)
 -->
<!-- Title: dependencies Pages: 1 -->
<svg width="726pt" height="211pt"
 viewBox="0.00 0.00 726.00 211.00" xmlns="http://www.w3.org/2000/svg" xmlns:xlink="http://www.w3.org/1999/xlink">
<g id="graph0" class="graph" transform="scale(1 1) rotate(0) translate(4 207)">
<title>dependencies</title>
<polygon fill="white" stroke="transparent" points="-4,4 -4,-207 722,-207 722,4 -4,4"/>
<text text-anchor="start" x="338.01" y="-42.4" font-family="Times-12" font-weight="bold" font-size="14.00">Legend</text>
<polygon fill="#ffffb3" stroke="transparent" points="125,-10 125,-30 145,-30 145,-10 125,-10"/>
<text text-anchor="start" x="148.63" y="-15.4" font-family="Times-12" font-size="14.00"> &#160;Declarations</text>
<polygon fill="#8dd3c7" stroke="transparent" points="238,-10 238,-30 258,-30 258,-10 238,-10"/>
<text text-anchor="start" x="261.73" y="-15.4" font-family="Times-12" font-size="14.00"> &#160;Module</text>
<polygon fill="#80b1d3" stroke="transparent" points="324,-10 324,-30 344,-30 344,-10 324,-10"/>
<text text-anchor="start" x="347.78" y="-15.4" font-family="Times-12" font-size="14.00"> &#160;Bootstrap</text>
<polygon fill="#fdb462" stroke="transparent" points="421,-10 421,-30 441,-30 441,-10 421,-10"/>
<text text-anchor="start" x="444.67" y="-15.4" font-family="Times-12" font-size="14.00"> &#160;Providers</text>
<polygon fill="#fb8072" stroke="transparent" points="517,-10 517,-30 537,-30 537,-10 517,-10"/>
<text text-anchor="start" x="540.73" y="-15.4" font-family="Times-12" font-size="14.00"> &#160;Exports</text>
<g id="clust1" class="cluster">
<title>cluster_TechnicalModule</title>
<polygon fill="none" stroke="black" stroke-dasharray="1,5" points="8,-70 8,-195 710,-195 710,-70 8,-70"/>
</g>
<g id="clust2" class="cluster">
<title>cluster_TechnicalModule_declarations</title>
<polygon fill="none" stroke="black" points="444,-78 444,-130 702,-130 702,-78 444,-78"/>
</g>
<g id="clust5" class="cluster">
<title>cluster_TechnicalModule_imports</title>
<polygon fill="none" stroke="black" points="16,-78 16,-130 436,-130 436,-78 16,-78"/>
</g>
<!-- DetailsComponent -->
<g id="node1" class="node">
<title>DetailsComponent</title>
<polygon fill="#ffffb3" stroke="black" points="694.48,-122 573.52,-122 573.52,-86 694.48,-86 694.48,-122"/>
<text text-anchor="middle" x="634" y="-99.8" font-family="Times,serif" font-size="14.00">DetailsComponent</text>
</g>
<!-- TechnicalModule -->
<g id="node3" class="node">
<title>TechnicalModule</title>
<polygon fill="#8dd3c7" stroke="black" points="429.24,-187 426.24,-191 405.24,-191 402.24,-187 314.76,-187 314.76,-151 429.24,-151 429.24,-187"/>
<text text-anchor="middle" x="372" y="-164.8" font-family="Times,serif" font-size="14.00">TechnicalModule</text>
</g>
<!-- DetailsComponent&#45;&gt;TechnicalModule -->
<g id="edge1" class="edge">
<title>DetailsComponent&#45;&gt;TechnicalModule</title>
<path fill="none" stroke="black" d="M634,-122.28C634,-143.32 634,-175 634,-175 634,-175 439.5,-175 439.5,-175"/>
<polygon fill="black" stroke="black" points="439.5,-171.5 429.5,-175 439.5,-178.5 439.5,-171.5"/>
</g>
<!-- ListComponent -->
<g id="node2" class="node">
<title>ListComponent</title>
<polygon fill="#ffffb3" stroke="black" points="555.61,-122 452.39,-122 452.39,-86 555.61,-86 555.61,-122"/>
<text text-anchor="middle" x="504" y="-99.8" font-family="Times,serif" font-size="14.00">ListComponent</text>
</g>
<!-- ListComponent&#45;&gt;TechnicalModule -->
<g id="edge2" class="edge">
<title>ListComponent&#45;&gt;TechnicalModule</title>
<path fill="none" stroke="black" d="M504,-122.02C504,-139.37 504,-163 504,-163 504,-163 439.51,-163 439.51,-163"/>
<polygon fill="black" stroke="black" points="439.51,-159.5 429.51,-163 439.51,-166.5 439.51,-159.5"/>
</g>
<!-- CommonModule -->
<g id="node4" class="node">
<title>CommonModule</title>
<polygon fill="#8dd3c7" stroke="black" points="427.67,-122 424.67,-126 403.67,-126 400.67,-122 316.33,-122 316.33,-86 427.67,-86 427.67,-122"/>
<text text-anchor="middle" x="372" y="-99.8" font-family="Times,serif" font-size="14.00">CommonModule</text>
</g>
<!-- CommonModule&#45;&gt;TechnicalModule -->
<g id="edge3" class="edge">
<title>CommonModule&#45;&gt;TechnicalModule</title>
<path fill="none" stroke="black" d="M372,-122.11C372,-122.11 372,-140.99 372,-140.99"/>
<polygon fill="black" stroke="black" points="368.5,-140.99 372,-150.99 375.5,-140.99 368.5,-140.99"/>
</g>
<!-- TechnicalRoutingModule -->
<g id="node5" class="node">
<title>TechnicalRoutingModule</title>
<polygon fill="#8dd3c7" stroke="black" points="297.86,-122 294.86,-126 273.86,-126 270.86,-122 138.14,-122 138.14,-86 297.86,-86 297.86,-122"/>
<text text-anchor="middle" x="218" y="-99.8" font-family="Times,serif" font-size="14.00">TechnicalRoutingModule</text>
</g>
<!-- TechnicalRoutingModule&#45;&gt;TechnicalModule -->
<g id="edge4" class="edge">
<title>TechnicalRoutingModule&#45;&gt;TechnicalModule</title>
<path fill="none" stroke="black" d="M218,-122.02C218,-139.37 218,-163 218,-163 218,-163 304.66,-163 304.66,-163"/>
<polygon fill="black" stroke="black" points="304.66,-166.5 314.66,-163 304.66,-159.5 304.66,-166.5"/>
</g>
<!-- FormsModule -->
<g id="node6" class="node">
<title>FormsModule</title>
<polygon fill="#8dd3c7" stroke="black" points="119.83,-122 116.83,-126 95.83,-126 92.83,-122 24.17,-122 24.17,-86 119.83,-86 119.83,-122"/>
<text text-anchor="middle" x="72" y="-99.8" font-family="Times,serif" font-size="14.00">FormsModule</text>
</g>
<!-- FormsModule&#45;&gt;TechnicalModule -->
<g id="edge5" class="edge">
<title>FormsModule&#45;&gt;TechnicalModule</title>
<path fill="none" stroke="black" d="M72,-122.28C72,-143.32 72,-175 72,-175 72,-175 304.51,-175 304.51,-175"/>
<polygon fill="black" stroke="black" points="304.51,-178.5 314.51,-175 304.51,-171.5 304.51,-178.5"/>
</g>
</g>
</svg>
