<?xml version="1.0" encoding="UTF-8" standalone="no"?>
<!DOCTYPE svg PUBLIC "-//W3C//DTD SVG 1.1//EN"
 "http://www.w3.org/Graphics/SVG/1.1/DTD/svg11.dtd">
<!-- Generated by graphviz version 2.47.0 (20210316.0004)
 -->
<!-- Title: dependencies Pages: 1 -->
<svg width="709pt" height="211pt"
 viewBox="0.00 0.00 709.00 211.00" xmlns="http://www.w3.org/2000/svg" xmlns:xlink="http://www.w3.org/1999/xlink">
<g id="graph0" class="graph" transform="scale(1 1) rotate(0) translate(4 207)">
<title>dependencies</title>
<polygon fill="white" stroke="transparent" points="-4,4 -4,-207 705,-207 705,4 -4,4"/>
<text text-anchor="start" x="329.51" y="-42.4" font-family="Times-12" font-weight="bold" font-size="14.00">Legend</text>
<polygon fill="#ffffb3" stroke="transparent" points="116.5,-10 116.5,-30 136.5,-30 136.5,-10 116.5,-10"/>
<text text-anchor="start" x="140.13" y="-15.4" font-family="Times-12" font-size="14.00"> &#160;Declarations</text>
<polygon fill="#8dd3c7" stroke="transparent" points="229.5,-10 229.5,-30 249.5,-30 249.5,-10 229.5,-10"/>
<text text-anchor="start" x="253.23" y="-15.4" font-family="Times-12" font-size="14.00"> &#160;Module</text>
<polygon fill="#80b1d3" stroke="transparent" points="315.5,-10 315.5,-30 335.5,-30 335.5,-10 315.5,-10"/>
<text text-anchor="start" x="339.28" y="-15.4" font-family="Times-12" font-size="14.00"> &#160;Bootstrap</text>
<polygon fill="#fdb462" stroke="transparent" points="412.5,-10 412.5,-30 432.5,-30 432.5,-10 412.5,-10"/>
<text text-anchor="start" x="436.17" y="-15.4" font-family="Times-12" font-size="14.00"> &#160;Providers</text>
<polygon fill="#fb8072" stroke="transparent" points="508.5,-10 508.5,-30 528.5,-30 528.5,-10 508.5,-10"/>
<text text-anchor="start" x="532.23" y="-15.4" font-family="Times-12" font-size="14.00"> &#160;Exports</text>
<g id="clust1" class="cluster">
<title>cluster_LeaderModule</title>
<polygon fill="none" stroke="black" stroke-dasharray="1,5" points="8,-70 8,-195 693,-195 693,-70 8,-70"/>
</g>
<g id="clust5" class="cluster">
<title>cluster_LeaderModule_imports</title>
<polygon fill="none" stroke="black" points="282,-78 282,-130 685,-130 685,-78 282,-78"/>
</g>
<g id="clust2" class="cluster">
<title>cluster_LeaderModule_declarations</title>
<polygon fill="none" stroke="black" points="16,-78 16,-130 274,-130 274,-78 16,-78"/>
</g>
<!-- ListComponent -->
<g id="node1" class="node">
<title>ListComponent</title>
<polygon fill="#ffffb3" stroke="black" points="265.61,-122 162.39,-122 162.39,-86 265.61,-86 265.61,-122"/>
<text text-anchor="middle" x="214" y="-99.8" font-family="Times,serif" font-size="14.00">ListComponent</text>
</g>
<!-- LeaderModule -->
<g id="node3" class="node">
<title>LeaderModule</title>
<polygon fill="#8dd3c7" stroke="black" points="387.41,-187 384.41,-191 363.41,-191 360.41,-187 288.59,-187 288.59,-151 387.41,-151 387.41,-187"/>
<text text-anchor="middle" x="338" y="-164.8" font-family="Times,serif" font-size="14.00">LeaderModule</text>
</g>
<!-- ListComponent&#45;&gt;LeaderModule -->
<g id="edge1" class="edge">
<title>ListComponent&#45;&gt;LeaderModule</title>
<path fill="none" stroke="black" d="M214,-122.02C214,-139.37 214,-163 214,-163 214,-163 278.64,-163 278.64,-163"/>
<polygon fill="black" stroke="black" points="278.64,-166.5 288.64,-163 278.64,-159.5 278.64,-166.5"/>
</g>
<!-- DetailsComponent -->
<g id="node2" class="node">
<title>DetailsComponent</title>
<polygon fill="#ffffb3" stroke="black" points="144.48,-122 23.52,-122 23.52,-86 144.48,-86 144.48,-122"/>
<text text-anchor="middle" x="84" y="-99.8" font-family="Times,serif" font-size="14.00">DetailsComponent</text>
</g>
<!-- DetailsComponent&#45;&gt;LeaderModule -->
<g id="edge2" class="edge">
<title>DetailsComponent&#45;&gt;LeaderModule</title>
<path fill="none" stroke="black" d="M84,-122.28C84,-143.32 84,-175 84,-175 84,-175 278.73,-175 278.73,-175"/>
<polygon fill="black" stroke="black" points="278.73,-178.5 288.73,-175 278.73,-171.5 278.73,-178.5"/>
</g>
<!-- CommonModule -->
<g id="node4" class="node">
<title>CommonModule</title>
<polygon fill="#8dd3c7" stroke="black" points="676.67,-122 673.67,-126 652.67,-126 649.67,-122 565.33,-122 565.33,-86 676.67,-86 676.67,-122"/>
<text text-anchor="middle" x="621" y="-99.8" font-family="Times,serif" font-size="14.00">CommonModule</text>
</g>
<!-- CommonModule&#45;&gt;LeaderModule -->
<g id="edge3" class="edge">
<title>CommonModule&#45;&gt;LeaderModule</title>
<path fill="none" stroke="black" d="M621,-122.28C621,-143.32 621,-175 621,-175 621,-175 397.29,-175 397.29,-175"/>
<polygon fill="black" stroke="black" points="397.29,-171.5 387.29,-175 397.29,-178.5 397.29,-171.5"/>
</g>
<!-- LeaderRoutingModule -->
<g id="node5" class="node">
<title>LeaderRoutingModule</title>
<polygon fill="#8dd3c7" stroke="black" points="546.53,-122 543.53,-126 522.53,-126 519.53,-122 403.47,-122 403.47,-86 546.53,-86 546.53,-122"/>
<text text-anchor="middle" x="475" y="-99.8" font-family="Times,serif" font-size="14.00">LeaderRoutingModule</text>
</g>
<!-- LeaderRoutingModule&#45;&gt;LeaderModule -->
<g id="edge4" class="edge">
<title>LeaderRoutingModule&#45;&gt;LeaderModule</title>
<path fill="none" stroke="black" d="M475,-122.02C475,-139.37 475,-163 475,-163 475,-163 397.46,-163 397.46,-163"/>
<polygon fill="black" stroke="black" points="397.46,-159.5 387.46,-163 397.46,-166.5 397.46,-159.5"/>
</g>
<!-- FormsModule -->
<g id="node6" class="node">
<title>FormsModule</title>
<polygon fill="#8dd3c7" stroke="black" points="385.83,-122 382.83,-126 361.83,-126 358.83,-122 290.17,-122 290.17,-86 385.83,-86 385.83,-122"/>
<text text-anchor="middle" x="338" y="-99.8" font-family="Times,serif" font-size="14.00">FormsModule</text>
</g>
<!-- FormsModule&#45;&gt;LeaderModule -->
<g id="edge5" class="edge">
<title>FormsModule&#45;&gt;LeaderModule</title>
<path fill="none" stroke="black" d="M338,-122.11C338,-122.11 338,-140.99 338,-140.99"/>
<polygon fill="black" stroke="black" points="334.5,-140.99 338,-150.99 341.5,-140.99 334.5,-140.99"/>
</g>
</g>
</svg>
